<?xml version="1.0" encoding="utf-8"?>
<!-- Generator: Adobe Illustrator 16.0.0, SVG Export Plug-In . SVG Version: 6.00 Build 0)  -->
<!DOCTYPE svg PUBLIC "-//W3C//DTD SVG 1.1//EN" "http://www.w3.org/Graphics/SVG/1.1/DTD/svg11.dtd">
<svg version="1.1" xmlns="http://www.w3.org/2000/svg" xmlns:xlink="http://www.w3.org/1999/xlink" x="0px" y="0px" width="10px"
	 height="10px" viewBox="0 0 10 10" enable-background="new 0 0 10 10" xml:space="preserve">
<g id="레이어_2">
	<rect x="-0.188" y="-0.219" stroke="#000000" stroke-miterlimit="10" width="10.391" height="10.438"/>
</g>
<g id="Layer_1">
	<path fill="#FFFFFF" d="M7.605,4.979c0,0.042-0.027,0.098-0.098,0.098h-0.57V4.15h0.57c0.07,0,0.098,0.042,0.098,0.112V4.979 M0,0
		h10v10H0V0z M2.993,5.941c0,0.336,0.267,0.617,0.589,0.617h2.75c0.352,0,0.604-0.281,0.604-0.617l0.002-0.418H7.76
		c0.141,0,0.254-0.111,0.254-0.28v-1.26c0-0.168-0.113-0.281-0.254-0.281H6.938V3.077H2.993V5.941z M9.087,6.807H0.833v0.178
		c0,0.259,0.208,0.468,0.457,0.457h7.342C8.88,7.452,9.088,7.244,9.088,6.984L9.087,6.807L9.087,6.807z"/>
</g>
</svg>
