<?xml version="1.0" encoding="utf-8"?>
<!-- Generator: Adobe Illustrator 16.0.0, SVG Export Plug-In . SVG Version: 6.00 Build 0)  -->
<!DOCTYPE svg PUBLIC "-//W3C//DTD SVG 1.1//EN" "http://www.w3.org/Graphics/SVG/1.1/DTD/svg11.dtd">
<svg version="1.1" xmlns="http://www.w3.org/2000/svg" xmlns:xlink="http://www.w3.org/1999/xlink" x="0px" y="0px" width="700px"
	 height="700px" viewBox="0 0 700 700" enable-background="new 0 0 700 700" xml:space="preserve">
<g id="레이어_2">
	<rect width="700" height="700"/>
</g>
<g id="Layer_1">
	<path fill="#FFFFFF" d="M0,0v700h700V0H0z M352.75,244c0,0,4.25-44.5,24.5-59.75v-9h-5V155h32.5v20.25h-5v9.5
		c19.75,15.75,24,59,23.75,59V400c0,8.25-6.5,14.75-14.75,14.75H374V292.5c0-7-5.5-12.5-12.5-12.5h-8.75V244z M355.75,303.75V412.5
		c0,10.75-8.75,19.25-19.25,19.25h-33.75c-10.75,0-19.25-8.75-19.25-19.25V305.25c0-7.75,6.25-14,14-14h45.75
		C350.25,291.25,355.75,296.75,355.75,303.75z M117.5,60h205.75L117.5,269.25V60z M209.75,639.5h-92v-90h92V639.5z M229.75,488.75
		v43.5l-75-62.25l75-62.25v42.5H475c0,0,30.5-6.75,30.25-42.5C505.5,372,475,372.5,475,372.5h-32.25v-39.75H475
		c31.75,0,51.25,22.25,51.25,22.25C547,374.5,545,407.75,545,407.75s2.5,38.5-17.75,57.25c0,0-20.25,23.75-52.25,23.75H229.75z
		 M581.75,639.5h-92v-90h92V639.5z M581.75,269.25L376,60h205.75V269.25z"/>
</g>
</svg>
