<?xml version="1.0" encoding="utf-8"?>
<!-- Generator: Adobe Illustrator 16.0.0, SVG Export Plug-In . SVG Version: 6.00 Build 0)  -->
<!DOCTYPE svg PUBLIC "-//W3C//DTD SVG 1.1//EN" "http://www.w3.org/Graphics/SVG/1.1/DTD/svg11.dtd">
<svg version="1.1" xmlns="http://www.w3.org/2000/svg" xmlns:xlink="http://www.w3.org/1999/xlink" x="0px" y="0px"
	 width="46.254px" height="46.254px" viewBox="0 0 46.254 46.254" enable-background="new 0 0 46.254 46.254" xml:space="preserve">
<g id="레이어_2">
	<rect x="-1.206" y="-1.706" stroke="#000000" stroke-miterlimit="10" width="49" height="49.333"/>
</g>
<g id="Layer_1">
	<path fill="#FFFFFF" d="M0,46.254h46.254V0H0V46.254z M41.665,32.611c0,1.865-1.514,3.38-3.379,3.38H7.97
		c-1.866,0-3.379-1.515-3.379-3.38V13.645c0-1.866,1.513-3.379,3.379-3.379h30.315c1.865,0,3.379,1.513,3.379,3.379V32.611z
		 M15.352,17.369c2.774,0,3.338,3.313,3.278,5.969c-0.056,2.563-0.462,5.675-3.32,5.675h-1.723V17.369H15.352 M32.483,19.353
		c0.031,1.196-0.895,2.102-2.234,2.102h-1.572v-4.089h1.986C31.904,17.366,32.456,18.302,32.483,19.353 M38.131,12.85H8.125
		c-0.571,0-1.033,0.462-1.033,1.033v18.489c0,0.569,0.462,1.031,1.033,1.031h30.004c0.57,0,1.033-0.462,1.033-1.031V13.883
		C39.163,13.313,38.7,12.85,38.131,12.85 M15.633,31.688c-1.208-0.043-1.89-0.057-3.098-0.068c-1.098-0.015-1.718-0.015-2.816,0
		V14.721h5.758c6.221,0.042,7.396,4.239,7.314,8.659C22.712,27.657,21.32,31.62,15.633,31.688 M31.113,31.62h-6.515V14.721H32.5
		c2.479,0.084,4.051,1.931,4.035,4.203c-0.015,1.912-0.968,3.195-2.9,3.951c2.479,0.337,3.518,2.163,3.488,4.331
		C37.083,30.357,33.72,31.745,31.113,31.62 M30.861,24.584c1.356,0.017,2.091,1.015,2.103,2.201
		c0.015,1.366-1.424,2.252-2.715,2.219h-1.572v-4.42H30.861"/>
</g>
</svg>
