<?xml version="1.0" encoding="utf-8"?>
<!-- Generator: Adobe Illustrator 16.0.0, SVG Export Plug-In . SVG Version: 6.00 Build 0)  -->
<!DOCTYPE svg PUBLIC "-//W3C//DTD SVG 1.1//EN" "http://www.w3.org/Graphics/SVG/1.1/DTD/svg11.dtd">
<svg version="1.1" xmlns="http://www.w3.org/2000/svg" xmlns:xlink="http://www.w3.org/1999/xlink" x="0px" y="0px" width="700px"
	 height="700px" viewBox="0 0 700 700" enable-background="new 0 0 700 700" xml:space="preserve">
<g id="레이어_2">
	<rect width="700" height="700"/>
</g>
<g id="Layer_1">
	<path fill="#FFFFFF" d="M0,0v700h700V0H0z M194.75,94.75h-92v43h64.75V170h-64.75v57.5H192V260H67.25v-32.5V170v-32.25v-43V62.5
		h127.5V94.75z M338.5,260l-41-68.25L254,260h-43.75l66.5-102.25L219.5,62.5h40l38.75,62.5L339,62.5h41l-61.25,95.75L382,260H338.5z
		 M453,260h-37.25V62.5H453V260z M652.25,94.75h-64.5V260h-37V94.75h-63.5V62.5h63.5h37h64.5V94.75z"/>
</g>
</svg>
