<?xml version="1.0" encoding="utf-8"?>
<!-- Generator: Adobe Illustrator 16.0.0, SVG Export Plug-In . SVG Version: 6.00 Build 0)  -->
<!DOCTYPE svg PUBLIC "-//W3C//DTD SVG 1.1//EN" "http://www.w3.org/Graphics/SVG/1.1/DTD/svg11.dtd">
<svg version="1.1" xmlns="http://www.w3.org/2000/svg" xmlns:xlink="http://www.w3.org/1999/xlink" x="0px" y="0px"
	 width="46.254px" height="46.254px" viewBox="0 0 46.254 46.254" enable-background="new 0 0 46.254 46.254" xml:space="preserve">
<g id="레이어_2">
	<rect x="-1.123" y="-1.498" stroke="#000000" stroke-miterlimit="10" width="48.625" height="49.875"/>
</g>
<g id="Layer_1">
	<path fill="#FFFFFF" d="M2.68,19.178h40.896v27.077h2.678V0H0v46.254h2.68V19.178z M24.749,8.396l0.523-0.467l4.447,4.429
		c0,0-0.086-0.71-0.096-2.148c0-0.023,0-6.903,0-7.114c0-0.468,0.326-0.919,0.873-0.919h0.672c0,0-0.002,8.023-0.002,8.033
		c-0.008,1.366-0.069,2.131-0.069,2.131l4.509-4.461l0.438,0.516c0.392,0.427,0.381,0.896-0.008,1.274l-4.298,4.229
		c-0.461,0.441-0.907,0.662-1.343,0.664c-0.436-0.002-0.882-0.223-1.344-0.664L24.754,9.67C24.368,9.292,24.356,8.823,24.749,8.396
		 M10.225,7.084l4.299-4.229c0.461-0.441,0.909-0.662,1.343-0.664c0.435,0.002,0.882,0.223,1.343,0.664l4.299,4.229
		c0.386,0.378,0.398,0.847,0.006,1.274l-0.436,0.516L16.57,4.413c0,0,0.061,0.766,0.069,2.131c0,0.01,0.002,8.033,0.002,8.033
		h-0.672c-0.547,0-0.874-0.451-0.874-0.918c0-0.212,0.001-7.092,0.002-7.115c0.009-1.438,0.095-2.148,0.095-2.148l-4.448,4.429
		L10.22,8.358C9.828,7.931,9.838,7.462,10.225,7.084 M3.479,46.254h4.907c-0.223-0.226-0.384-0.477-0.44-0.812
		c-0.061-0.358-0.061-0.601-0.061-0.601L7.873,36.62c0-0.89,0.193-1.543,0.516-2.078c0.902-1.531,3.242-2.619,5.977-2.619
		c2.751,0,5.097,1.104,5.992,2.65c0.34,0.584,0.528,1.268,0.528,2.047l-0.01,8.241c0,0,0,0.241-0.06,0.603
		c-0.057,0.338-0.276,0.563-0.503,0.791h6.979c0.018-0.049,2.983-8.896,3.146-9.438l0.003-0.028c0-0.141-0.112-0.252-0.252-0.252
		c-0.104,0-0.198,0.063-0.233,0.151l-3.074,9.261c0,0-0.646-0.222-0.859-0.348c-0.216-0.126-0.491-0.376-0.611-0.624
		c-0.121-0.249-0.195-0.485-0.146-0.78c0.049-0.293,0.111-0.479,0.111-0.479l0.53-1.553c0.025-0.086,0.054-0.17,0.083-0.261
		l2.568-7.266c0.54-1.476,1.979-2.438,3.797-2.491h0.236h0.236c1.819,0.053,3.258,1.016,3.797,2.491l2.568,7.266
		c0.03,0.091,0.059,0.175,0.083,0.261l0.529,1.553c0,0,0.063,0.186,0.112,0.479c0.051,0.295-0.023,0.531-0.146,0.78
		c-0.122,0.248-0.397,0.498-0.612,0.624c-0.216,0.126-0.859,0.348-0.859,0.348l-3.075-9.261c-0.033-0.09-0.128-0.151-0.231-0.151
		c-0.141,0-0.252,0.111-0.252,0.252l0.002,0.028c0.161,0.542,3.129,9.39,3.146,9.438h4.887V19.978H3.479V46.254z M32.745,25.82
		c1.379,0,2.496,1.118,2.496,2.497s-1.117,2.497-2.496,2.497s-2.498-1.118-2.498-2.497S31.366,25.82,32.745,25.82 M14.332,25.795
		c1.379,0,2.497,1.117,2.497,2.498c0,1.379-1.118,2.496-2.497,2.496s-2.497-1.117-2.497-2.496
		C11.834,26.913,12.953,25.795,14.332,25.795 M17.833,37.157c0-0.519,0.498-0.519,0.51,0l-0.022,9.098h-0.488V37.157 M10.927,46.254
		h-0.443l-0.067-9.098c0.013-0.519,0.51-0.519,0.51,0V46.254z"/>
</g>
</svg>
