<?xml version="1.0" encoding="utf-8"?>
<!-- Generator: Adobe Illustrator 16.0.0, SVG Export Plug-In . SVG Version: 6.00 Build 0)  -->
<!DOCTYPE svg PUBLIC "-//W3C//DTD SVG 1.1//EN" "http://www.w3.org/Graphics/SVG/1.1/DTD/svg11.dtd">
<svg version="1.1" xmlns="http://www.w3.org/2000/svg" xmlns:xlink="http://www.w3.org/1999/xlink" x="0px" y="0px"
	 width="46.254px" height="46.254px" viewBox="0 0 46.254 46.254" enable-background="new 0 0 46.254 46.254" xml:space="preserve">
<g id="레이어_2">
	<rect x="-1.789" y="-1.289" stroke="#000000" stroke-miterlimit="10" width="49.417" height="48.583"/>
</g>
<g id="Layer_1">
	<path fill="#FFFFFF" d="M0,46.254h46.254V0H0V46.254z M25.682,15.085c-0.008,1.911-2.114,2.368-2.114,2.848l0.005,2.456
		c0,0-0.379,0.026-0.658-0.026c-0.278-0.053-0.604-0.122-0.665-0.417c-0.019-0.093-0.026-2.015-0.026-2.015
		c0-1.598,2.108-1.665,2.114-2.851c0.01-2.628-2.91-2.619-2.91-0.231v0.862c0,0-0.349,0.027-0.627-0.026
		c-0.279-0.052-0.605-0.122-0.666-0.416c-0.006-0.028-0.039-0.163-0.043-0.422C20.098,11.034,25.7,10.462,25.682,15.085
		 M42.56,33.183L25.577,26.1c-0.854-0.342-1.621-0.514-2.476-0.514c-0.854,0-1.621,0.172-2.475,0.514L3.644,33.183
		c-0.598-1.194-0.769-1.792-0.769-2.39c0-0.854,0.427-1.707,1.963-2.306l14.765-6.145c1.28-0.512,2.304-0.853,3.499-0.853
		c1.193,0,2.219,0.341,3.499,0.853l14.765,6.145c1.536,0.599,1.963,1.451,1.963,2.306C43.329,31.391,43.157,31.988,42.56,33.183"/>
</g>
</svg>
