<?xml version="1.0" encoding="utf-8"?>
<!-- Generator: Adobe Illustrator 16.0.0, SVG Export Plug-In . SVG Version: 6.00 Build 0)  -->
<!DOCTYPE svg PUBLIC "-//W3C//DTD SVG 1.1//EN" "http://www.w3.org/Graphics/SVG/1.1/DTD/svg11.dtd">
<svg version="1.1" xmlns="http://www.w3.org/2000/svg" xmlns:xlink="http://www.w3.org/1999/xlink" x="0px" y="0px" width="700px"
	 height="700px" viewBox="0 0 700 700" enable-background="new 0 0 700 700" xml:space="preserve">
<g id="레이어_2">
	<rect width="700" height="700"/>
</g>
<g id="Layer_1">
	<path fill="#FFFFFF" d="M356.5,341.25h44v55.5c-1.5-0.25-3-0.25-4.75-0.5C378,380.5,365,361.75,356.5,341.25z M424,166
		c-0.75,0-1.75,0-3-0.25v57h45.25C457.25,201.5,443.25,182,424,166z M311.75,341.25c11,18,26.5,32.75,45.25,42.5
		c-9.75-13.25-17.25-27.5-22.5-42.5H311.75z M328.75,243.5h-27.5c-4,11.75-6.25,24.5-6.25,37.75c0,14,2.5,27.25,7,39.5h26.5
		C322.75,295.25,322.75,268.75,328.75,243.5z M474,320.75c6.25-25.25,6.25-52-0.5-77.25h-52.25v77.25H474z M400.5,222.75v-57
		c-0.25,0-0.5,0-0.75,0c-19.25,16-33.25,35.75-42.5,57H400.5z M360.5,176.75c-20.75,10.25-38,26.25-49.75,46H335
		C341,206.5,349.5,191,360.5,176.75z M349.75,320.75h51V243.5h-50.5C343.5,268.75,343.25,295.25,349.75,320.75z M421.25,396.75
		c2.5-0.25,4.75-0.5,7-0.75c17.5-15.75,30.5-34.5,38.75-54.75h-45.75V396.75z M464.25,178.25c10.25,13.75,18.5,28.75,24.25,44.5H511
		C500,204,483.75,188.5,464.25,178.25z M641.25,282.25c0,26.75-10,53-29,76.5s-46.75,43.5-79.75,57.75c-0.125,0-0.188,0-0.188,0
		s0.063,0,0.188,0c-4.75,2-13,5-18.75,7.25L522,442l16.5,36.5l-37.75-30.25l-19.5-15.75c-3.75,1-7,1.75-9.75,2.25
		c-5.5,1-10.75,1.75-16.25,2.5c-14,1.75-28.5,2.75-43,2.75c-1.25,0-2.75,0-4,0c-61-0.75-118-17.75-160.75-48.25
		c-42-29.75-65-68.75-65-109.5c0-17.25,4-34,11.75-49.75c10.75-22,28.5-42.5,52.75-59.75c43.75-31.25,102.25-48.5,164.75-48.5
		s121,17.25,164.75,48.5C618.25,202.5,641.25,241.5,641.25,282.25z M547.25,281.25C547,214,498,158,433.75,147.25
		c-0.5,0-1-0.25-1.5-0.25c-7-1-14-1.75-21.25-1.75c-6.75,0-13.25,0.5-19.5,1.5c-0.25,0-0.5,0-0.75,0
		c-65.5,9.75-115.5,66.25-115.5,134.5c0,66.5,47.75,121.75,111,133.5c2.5,0.5,5,0.75,7.5,1.25c5.75,0.75,11.5,1.25,17.5,1.25
		c6.5,0,12.75-0.5,19-1.25c2.75-0.5,5.5-0.75,8.25-1.5C500.5,401.75,547.25,347,547.25,281.25z M700,0v700H0V0H700z M661.25,282.25
		c0-98.25-111.75-178-249.5-178c-117.5,0-216.25,58.25-242.5,136.25C111.5,263.25,72.5,306.75,72.5,357s39.5,94,97.75,116.75
		l-30.5,65l70.25-53.5c16.25,3.25,33.25,5,51,5c46.25,0,88.5-11.75,121-31.25c9.75,0.75,19.75,1.25,30,1.25c21.75,0,43-2,63-5.75
		c0.25,0,0.75-0.25,1.25-0.25l114.5,91.5l-50-111C613,403.5,661.25,346.75,661.25,282.25z M468,382c17.25-9.75,31.75-23.75,42-40.75
		h-20.75C484,355.5,477,369.25,468,382z M495,320.75h24.75c4.5-12.5,7-25.75,7-39.5c0-13.25-2.25-26-6.25-37.75h-25.75
		C500.75,268.75,500.75,295.25,495,320.75z"/>
</g>
</svg>
