<?xml version="1.0" encoding="utf-8"?>
<!-- Generator: Adobe Illustrator 16.0.0, SVG Export Plug-In . SVG Version: 6.00 Build 0)  -->
<!DOCTYPE svg PUBLIC "-//W3C//DTD SVG 1.1//EN" "http://www.w3.org/Graphics/SVG/1.1/DTD/svg11.dtd">
<svg version="1.1" xmlns="http://www.w3.org/2000/svg" xmlns:xlink="http://www.w3.org/1999/xlink" x="0px" y="0px" width="700px"
	 height="700px" viewBox="0 0 700 700" enable-background="new 0 0 700 700" xml:space="preserve">
<g id="레이어_2">
	<rect width="700" height="700"/>
</g>
<g id="Layer_1">
	<path fill="#FFFFFF" d="M0,0h700v700H0V0z M631.25,576L424.5,369.25c-5.75-5.75-14.25-7.5-21.75-5.25l-26.5-26.5
		c44.25-58.25,39.75-141.75-13.5-195c-58-58-152.25-58-210.25,0s-58,152.25,0,210.25c53,53,136,57.5,194.25,14l27,27
		c-2,7.25-0.25,15,5.5,20.75L586,621.25c12.5,12.5,32.75,12.5,45.25,0l0,0C644,608.75,644,588.5,631.25,576z M170.25,335.25
		c-48.25-48.25-48.25-126.75,0-175s126.75-48.25,175,0s48.25,126.75,0,175S218.5,383.5,170.25,335.25z M160.25,251.25l27.5-1
		c0-0.25-0.25-16.25,8.5-32.75c11.25-21.25,32.5-33.75,63.25-37l-3-27.25C177.75,161.25,159.25,221,160.25,251.25z"/>
</g>
</svg>
