<?xml version="1.0" encoding="utf-8"?>
<!-- Generator: Adobe Illustrator 16.0.0, SVG Export Plug-In . SVG Version: 6.00 Build 0)  -->
<!DOCTYPE svg PUBLIC "-//W3C//DTD SVG 1.1//EN" "http://www.w3.org/Graphics/SVG/1.1/DTD/svg11.dtd">
<svg version="1.1" xmlns="http://www.w3.org/2000/svg" xmlns:xlink="http://www.w3.org/1999/xlink" x="0px" y="0px"
	 width="46.254px" height="46.254px" viewBox="0 0 46.254 46.254" enable-background="new 0 0 46.254 46.254" xml:space="preserve">
<g id="레이어_2">
	<rect x="-1.289" y="-1.123" stroke="#000000" stroke-miterlimit="10" width="48.25" height="48.167"/>
</g>
<g id="Layer_1">
	<path fill="#FFFFFF" d="M0,46.254h46.254V0H0V46.254z M28.54,8.726c1.448,0,2.504,1.054,2.504,2.57c0,1.45-1.056,2.504-2.504,2.504
		c-1.385,0-2.438-1.054-2.438-2.504C26.101,9.78,27.155,8.726,28.54,8.726 M24.717,18.017c0-2.109,1.582-3.295,3.822-3.295
		c2.239,0,3.821,1.186,3.821,3.295v9.424l-7.646-7.644v-1.78H24.717z M15.613,34.204c0,1.328-0.195,1.752-0.519,2.074
		c-0.324,0.325-0.745,0.52-2.075,0.52H6.763c-0.292,0-0.552-0.063-0.778-0.26c-0.324-0.355-0.292-0.744-0.227-1.522h5.997
		l0.875,0.032l-8.201-8.17l0.518-0.52c0.422-0.421,1.038-0.421,1.459,0l7.457,7.457L13.83,32.94v-5.998
		c0.778-0.064,1.167-0.098,1.524,0.227c0.194,0.229,0.259,0.485,0.259,0.777V34.204z M41.851,36.799H31.504
		c-1.385,0-2.834-0.527-3.821-1.518l-14.63-14.629H4.419v-2.372c0-2.504,1.977-5.206,5.206-5.206h4.35
		c1.383,0,2.833,0.527,3.822,1.516l14.629,14.63h4.218c3.229,0,5.206,2.701,5.206,5.205L41.851,36.799L41.851,36.799z"/>
</g>
</svg>
