<?xml version="1.0" encoding="utf-8"?>
<!-- Generator: Adobe Illustrator 16.0.0, SVG Export Plug-In . SVG Version: 6.00 Build 0)  -->
<!DOCTYPE svg PUBLIC "-//W3C//DTD SVG 1.1//EN" "http://www.w3.org/Graphics/SVG/1.1/DTD/svg11.dtd">
<svg version="1.1" xmlns="http://www.w3.org/2000/svg" xmlns:xlink="http://www.w3.org/1999/xlink" x="0px" y="0px"
	 width="46.254px" height="46.254px" viewBox="0 0 46.254 46.254" enable-background="new 0 0 46.254 46.254" xml:space="preserve">
<g id="레이어_2">
	<rect x="-1.373" y="-3.373" stroke="#000000" stroke-miterlimit="10" width="51" height="51.333"/>
</g>
<g id="Layer_1">
	<path fill="#FFFFFF" d="M0,46.254h46.254V0H0V46.254z M23.127,40.356c-9.516,0-17.229-7.714-17.229-17.229
		c0-9.516,7.714-17.229,17.229-17.229c9.517,0,17.231,7.713,17.231,17.229S32.644,40.356,23.127,40.356 M29.84,21.708
		c3.854,2.109,4.313,4.566,4.424,6.515c0.119,2.109-1.11,4.47-3.76,6.383c-2.334,1.686-5.319,2.225-6.99,2.255
		c-1.398,0.026-4.416,0.048-8.558-2.075l-2.459-1.447l-0.008-5.115c0,0,0.014-0.191,0.17-0.079c0.641,0.655,2.955,2.821,5.079,3.903
		c1.015,0.517,3.645,1.375,4.918,1.354c2.511-0.038,4.812-1.122,4.854-3.054c0.027-1.206-0.514-2.604-2.926-2.989l-4.757-1.222
		c-3.601-1.221-7.508-3.384-7.716-7.972c-0.128-2.829,1.479-5.047,3.039-6.458c2.39-2.163,5.293-2.378,7.196-2.435
		c1.285-0.038,3.462,0.416,5.47,1.168c1.753,0.733,2.992,1.443,4.532,2.438l0.044,4.48c0,0-0.011,0.041-0.045,0.014
		c-0.152-0.189-0.742-0.714-1.552-1.347c-0.918-0.592-2.049-1.504-3.377-2.111c-1.82-0.831-3.062-1.145-5.024-1.23
		c-1.24-0.055-3.984,0.214-4.037,2.93c-0.025,1.307,1.689,2.823,4.054,3.603l3.615,1.062C28.15,20.909,28.84,21.162,29.84,21.708"/>
</g>
</svg>
