<?xml version="1.0" encoding="utf-8"?>
<!-- Generator: Adobe Illustrator 16.0.0, SVG Export Plug-In . SVG Version: 6.00 Build 0)  -->
<!DOCTYPE svg PUBLIC "-//W3C//DTD SVG 1.1//EN" "http://www.w3.org/Graphics/SVG/1.1/DTD/svg11.dtd">
<svg version="1.1" xmlns="http://www.w3.org/2000/svg" xmlns:xlink="http://www.w3.org/1999/xlink" x="0px" y="0px" width="700px"
	 height="700px" viewBox="0 0 700 700" enable-background="new 0 0 700 700" xml:space="preserve">
<g id="레이어_2">
	<rect width="700" height="700"/>
</g>
<g id="Layer_1">
	<path fill="#FFFFFF" d="M176.5,462.5v9c0,1.5-0.25,3-0.5,4.25c-1.75,5.25-6.75,9.5-13.25,9.5c-5.75,0-10-3.25-10-9.75
		C152.75,465.5,163,462.25,176.5,462.5z M172.75,100c-10.75,0-15,9.75-15.75,16.75h30.25C187.25,110.5,184.5,100,172.75,100z
		 M170.25,281.25h30.25c0-6.25-2.75-16.75-14.5-16.75C175.25,264.5,171,274.25,170.25,281.25z M489,264.5
		c-10.75,0-15,9.75-15.75,16.75h30.25C503.5,275,500.75,264.5,489,264.5z M700,0v700H0V0H700z M416,127c0,25.75,17,42,43.5,42
		c9.75,0,18.25-1.75,22.75-3.75l-3-18.75c-3.75,1.5-8.5,2.5-14.5,2.5c-12.5,0-22.5-8-22.5-23c-0.25-13.5,8.5-23,22-23
		c6.75,0,11.25,1.25,14.25,2.5l4-19c-5.5-2-12.75-3.25-19.5-3.25C432.5,83.25,416,103,416,127z M371.75,62.25
		C371.5,69.25,377,75,385,75c8.25,0,13.75-5.75,13.75-12.75c-0.25-7.5-5.5-13-13.5-13C377,49.25,371.5,54.75,371.75,62.25z
		 M372.25,85v82.25h25.5V85H372.25z M277.25,85l30,82.25h25.5L363.25,85h-27l-10.5,38.25c-1.75,7-3.25,13.25-4.5,20h-0.5
		c-1.25-6.5-2.75-13-4.75-20L305,85H277.25z M217.75,85c0.5,7,0.75,15,0.75,27v55.25H244V125.5c0-2,0.25-4,0.5-5.75
		c1.75-8,8-13,17.5-13c3,0,5.25,0.5,7,0.75V83.25C267,83,265.75,83,263.5,83c-8,0-18,5-22.25,17h-0.75l-0.75-15H217.75z
		 M187.75,247.75c-28.5,0-41.5,23-41.5,43.75c0,25.5,15.75,41.75,43.75,41.75c11,0,21.25-1.75,29.75-5L216.5,311
		c-7,2-14,3.25-22.75,3.25c-11.903,0-22.325-5.168-23.225-15.5H223.5c0.25-1.75,0.75-5.75,0.75-10
		C224.25,268.5,214.25,247.75,187.75,247.75z M133,127.25c0,25.5,15.75,41.75,43.75,41.75c11,0,21.25-1.75,29.75-5l-3.25-17.25
		c-7,2-14,3.25-22.75,3.25c-11.903,0-22.325-5.168-23.225-15.5h52.975c0.25-1.75,0.75-5.75,0.75-10c0-20.25-10-41-36.5-41
		C146,83.5,133,106.5,133,127.25z M101.75,135.5c0,7.5-6.25,12.25-18,12.25c-11,0-21.5-3.5-28.5-7l-5.25,21c6.25,3.75,19,7,32,7
		c31.25,0,45.75-16,45.75-35c0-16-9.5-26.25-29.5-33.75c-14.5-5.5-21-8.75-21-16c0-6,5.25-11,16.5-11s19.25,3.25,23.75,5.5l6-20.75
		c-6.75-3-16.25-5.75-29-5.75C68,52,51.75,66.75,51.75,86c0,16.5,12.25,27,31,33.5C96.25,124.5,101.75,128.5,101.75,135.5z
		 M49.25,276.5c0,32.25,20,56.5,59.25,56.5c13.75,0,24.25-2.5,29-4.75L133.75,308c-5,2-13.5,3.75-21.25,3.75
		c-22.75,0-36.25-14.25-36.25-37c0-25.25,15.75-37.5,36-37.5c9,0,16.25,2,21.5,4.25l5.25-20.25c-4.75-2.25-14.75-5-28-5
		C76.75,216.25,49.25,237.75,49.25,276.5z M80,432.75v-23.5h32l7.5-21h-65V501.5h63v-21H80v-27h31.25h0.25h-0.25v-20.75H80z
		 M202.5,501c-1-4.5-1.25-12-1.25-20v-28.5c0-19.25-8.5-35.5-36-35.5c-15,0-26.25,4-32,7.25l4.75,16.5
		c5.5-3.5,14.25-6.25,22.75-6.25c12.75,0,15,6.25,15,10.5v1.25c-29,0-48.25,10.25-48.25,31.5C127.5,491,137.25,503,154,503
		c9.75,0,18-3.5,23.5-10h0.5l1.5,8.25V501H202.5z M276,476.25c0-12-6.75-19.75-22.25-25.25c-10-3.5-13.25-5.75-13.25-9.5
		c0-4.25,3.5-6.75,9.75-6.75c7,0,14,2.75,17.75,4.75l4.5-17.75c-5-2.5-13.75-4.75-23.25-4.75c-20.5,0-33.5,11.75-33.5,27
		c-0.25,9.75,6.25,19,23.25,24.75c9.5,3.25,12,5.25,12,9.5s-3.25,7-11,7c-7.5,0-17.25-3.5-22-6.25l-4,18
		c6.25,3.5,15.75,5.75,26.5,5.75C264,502.75,276,491.5,276,476.25z M284.5,286v45.5H310v-48.75c0-24.25-12.75-35.25-29.5-35.25
		c-13.5,0-22,7.75-25.25,13h-0.5l-1.25-11.25h-22.25c0.5,7.25,0.75,16,0.75,26.25v56.25h25.5v-47.5c0-2.5,0.25-5,1-6.5
		c1.75-4.75,6-9.5,13-9.5C280.75,268.25,284.5,275.5,284.5,286z M346,496.5l-7.75-16c-2,0.25-3.25,2-6.5,2c-7.75,0-10-4.5-10-14.5
		v-29.75h14.5l5.75-17l-20.25-2v-23.5l-25,6.25v17.75h-11v18.75h11V472c0,11.5,2.25,19.5,7,24.25c4.25,4.25,11,7,19.25,7
		C330.25,503.25,339,501.5,346,496.5z M383,329.75l-7.75-16c-2,0.25-3.25,2-6.5,2c-7.75,0-10-4.5-10-14.5V271.5h14.5l5.75-17
		l-20.25-2V229l-25,5.75v17.75h-11v19.25h11v33.5c0,11.5,2.25,19.5,7,24.25c4.25,4.25,11,7,19.25,7
		C367.25,336.5,376,334.75,383,329.75z M442.25,271.75L450,251c-3.25-2.25-11-3.75-13-3.5c-8.75,1.25-18,5-22.25,17H414l-0.75-15
		h-22c0.5,7,0.75,15,0.75,27h-0.25v55h25.5v-41.75c0-2,0.25-4,0.5-5.75c1.75-8,8-13,17.5-13C438.25,271,440.5,271.5,442.25,271.75z
		 M527.5,288.75c0-20.25-10.25-41-36.75-41c-28.5,0-41.5,23-41.5,43.75c0,25.5,15.75,41.75,43.75,41.75c11,0,21.25-1.75,29.75-5
		L519.5,311c-7,2-14,3.25-22.75,3.25c-11.903,0-22.325-5.168-23.225-15.5h53.225C527,297,527.5,293,527.5,288.75z M560.5,124.5
		c0-20.25-10-41-36.5-41c-28.5,0-41.5,23-41.5,43.75c0,25.5,15.75,41.75,43.75,41.75c11,0,21.25-1.75,29.75-5l-3.25-17.25
		c-7,2-14,3.25-22.75,3.25c-11.903,0-22.325-5.168-23.225-15.5h52.975C560,132.75,560.5,128.75,560.5,124.5z M522.25,100
		c-10.75,0-15,9.75-15.75,16.75h30.25C536.75,110.5,534,100,522.25,100z M157.25,134.5h0.025c-0.008-0.084-0.021-0.166-0.025-0.25
		V134.5z M506.75,134.5h0.025c-0.008-0.084-0.021-0.166-0.025-0.25V134.5z M170.5,298.75h0.025c-0.008-0.084-0.021-0.166-0.025-0.25
		V298.75z M473.5,298.75h0.025c-0.008-0.084-0.021-0.166-0.025-0.25V298.75z"/>
</g>
</svg>
