<?xml version="1.0" encoding="utf-8"?>
<!-- Generator: Adobe Illustrator 16.0.0, SVG Export Plug-In . SVG Version: 6.00 Build 0)  -->
<!DOCTYPE svg PUBLIC "-//W3C//DTD SVG 1.1//EN" "http://www.w3.org/Graphics/SVG/1.1/DTD/svg11.dtd">
<svg version="1.1" xmlns="http://www.w3.org/2000/svg" xmlns:xlink="http://www.w3.org/1999/xlink" x="0px" y="0px" width="700px"
	 height="700px" viewBox="0 0 700 700" enable-background="new 0 0 700 700" xml:space="preserve">
<g id="레이어_2">
	<rect width="700" height="700"/>
</g>
<g id="Layer_1">
	<path fill="#FFFFFF" d="M124.25,270.5c5,7,7.5,16,7.5,27.75c0,11.25-2.5,20-7.75,26.75s-12.5,10-21.75,10
		c-9,0-16.25-3.25-21.5-10.25S73,309,73,298c0-11.25,2.5-20.25,7.75-27.25s12.75-10.5,22-10.5S119.25,263.75,124.25,270.5z
		 M172.75,99c-4,0-7.5,1.75-10.5,5s-5,7.5-5.75,13h30.75C187.25,105,182.5,99,172.75,99z M700,0v700H0V0H700z M456,59.25
		c0,3.5,1.25,6.25,3.75,9c2.5,2.25,5.75,3.5,9.75,3.5s7.25-1.25,9.75-3.5S483,63,483,59.5s-1.25-6.5-3.75-8.75s-5.75-3.5-9.75-3.5
		s-7.25,1-9.75,3.25S456,55.75,456,59.25z M457.75,85v80H481V85H457.75z M394.25,165h23.25v-38.5c0-7.25,1.75-12.75,4.75-16.75
		s7.25-6,12.5-6c4,0,7.5,0.75,10.25,2.5V84.5c-1.5-0.75-3.5-1-6.25-1c-10.25,0-17.25,5.5-21,16.5h-0.25V85h-23.25V165z
		 M220.25,127.25c0,11.75,3.75,21.25,11.25,28.75c7.5,7.25,17.25,11,29.5,11c10.25,0,18.25-1.75,23.75-5H285v-18.75
		c-6,4-12,6-18.25,6c-7,0-12.75-2-16.75-6.25c-4.25-4.25-6.25-10-6.25-17.25c0-7.5,2-13.5,6.5-17.75s10-6.5,17.25-6.5
		c6.25,0,12.25,1.75,17.5,5.75v-20c-4.5-2.5-11.25-3.75-20.25-3.75c-13.5,0-24.25,4-32.25,11.75
		C224.25,103,220.25,113.75,220.25,127.25z M133.5,126c0,12.75,3.5,22.75,10.5,30c7.25,7.25,17,10.75,29.75,10.75
		c11.75,0,21.25-2.25,28.5-6.25v-17c-6.75,4.25-14.5,6.5-23.25,6.5c-14.25,0-21.75-6-22.5-18.5H209v-10c0-12-3-21.5-9.5-28.25
		C193.25,86.5,184.25,83,173,83s-20.75,4-28.25,12S133.5,113.25,133.5,126z M48.25,84.25c0,14,8.75,24.75,26.25,32.25
		c11,4.75,17.75,8.5,20.5,11s4,5.5,4,8.5c0,3.75-1.75,6.5-5,8.75S85.75,148,79.25,148c-11.395,0-21.56-3.687-30.5-11.05v-0.2H48.5
		c0.083,0.069,0.167,0.132,0.25,0.2v23.8C57,165,67.5,167,80.25,167c14,0,25-2.75,32.5-8.5c7.75-5.5,11.5-13.75,11.5-24.5
		c0-7.5-2-13.75-6.25-19s-12-10.25-23-15c-9.5-4-15.25-7.25-17.75-9.75c-2.25-2.5-3.5-5-3.5-8c0-3.75,1.75-6.5,5.25-8.75
		s8-3.25,14-3.25c10,0,18.75,2.75,26.25,7.75V55.5c-7.5-2.75-16.5-4.25-27.5-4.25c-13,0-23.5,3-31.5,8.75S48.25,73.75,48.25,84.25z
		 M157.25,297c0-16.75-5-30.25-14.75-41S120,240,104,240c-17,0-30.5,5.5-40.75,16.5S48,281.75,48,299.25c0,16.5,5,30,15.25,40.75
		c10,10.5,23,15.75,39,15.75c16.25,0,29.5-5.25,39.75-16.25S157.25,314.5,157.25,297z M228.25,235c-3.25-1-7.25-1.5-12.25-1.5
		c-9.5,0-17.25,2.75-23.25,8.25s-9,12.75-9,21.75v10.25H170.5v17.5h13.25v62.5H207v-62.5h18.25v-17.5H207v-9
		c0-8.75,4-13.25,12-13.25c2.75,0,5.75,0.75,9,2h0.25V235z M288.25,235c-3.25-1-7.25-1.5-12.25-1.5c-9.5,0-17.25,2.75-23.25,8.25
		s-9,12.75-9,21.75v10.25H230.5v17.5h13.25v62.5H267v-62.5h18.25v-17.5H267v-9c0-8.75,4-13.25,12-13.25c2.75,0,5.75,0.75,9,2h0.25
		V235z M320,273.75h-23.25v80H320V273.75z M322,248.25c0-3.5-1.25-6.5-3.75-8.75s-5.75-3.5-9.75-3.5s-7.25,1-9.75,3.25
		S295,244.5,295,248s1.25,6.25,3.75,9c2.5,2.25,5.75,3.5,9.75,3.5s7.25-1.25,9.75-3.5S322,251.75,322,248.25z M329,167
		c10.25,0,18.5-4.75,24.5-14.25h0.25V165H377V85h-23.25v45.75c0,5.5-1.5,10-4.25,13.25s-6.5,5-11.25,5c-9.25,0-14-6-14-18V85H301
		v48.25C301,155.75,310.5,167,329,167z M403.5,276c-4.5-2.5-11.25-3.75-20.25-3.75c-13.25,0-24.25,4-32.25,11.75
		c-8.25,7.75-12.25,18.5-12.25,32c0,11.75,3.75,21.25,11.25,28.75c7.5,7.25,17.25,11,29.5,11c10.25,0,18.25-1.75,23.75-5h0.25V332
		c-6,4-12,6-18.25,6c-7,0-12.75-2-16.75-6.25c-4.25-4.25-6.25-10-6.25-17.25c0-7.5,2.25-13.5,6.5-17.75
		c4.5-4.25,10.25-6.5,17.25-6.5c6.25,0,12.25,1.75,17.5,5.75V276z M490.75,310.25c0-12-3-21.5-9.5-28.25
		c-6.25-6.75-15.25-10.25-26.5-10.25s-20.75,4-28.25,12s-11.25,18.25-11.25,31s3.5,22.75,10.5,30c7.25,7.25,17,10.75,29.75,10.75
		c11.75,0,21.25-2.25,28.5-6.25v-17c-6.75,4.25-14.5,6.5-23.25,6.5c-14.25,0-21.75-6-22.5-18.5h52.5V310.25z M549.75,85H531.5V60.75
		l-23.25,6.75V85H495v17.5h13.25v37.75c0,17.75,8.5,26.75,25.5,26.75c7.25,0,12.5-1,16-3h-0.25v-17.25c-2.75,1.5-5.5,2.25-8,2.25
		c-6.75,0-10-4.25-10-12.75V102.5h18.25V85z M644.5,85h-23l-16,50.25c-1.25,4-2.25,7.5-2.5,10h-0.5c-0.25-3.75-1-7.25-2-10.25
		L585,85h-26l32.5,79.75l-4.5,10.5c-2.75,6.25-7.25,9.25-13.5,9.25c-3.75,0-7-1-10.25-2.75v18.75c3.25,1.25,8,2,14,2
		c15.25,0,26.75-10.25,34.25-30.5L644.5,85z M454.5,287.75c-4,0-7.5,1.75-10.5,5s-5,7.5-5.75,13H469
		C469,293.75,464.25,287.75,454.5,287.75z M48.5,136.75c0.083,0.069,0.167,0.132,0.25,0.2v-0.2H48.5z"/>
</g>
</svg>
