<?xml version="1.0" encoding="utf-8"?>
<!-- Generator: Adobe Illustrator 16.0.0, SVG Export Plug-In . SVG Version: 6.00 Build 0)  -->
<!DOCTYPE svg PUBLIC "-//W3C//DTD SVG 1.1//EN" "http://www.w3.org/Graphics/SVG/1.1/DTD/svg11.dtd">
<svg version="1.1" xmlns="http://www.w3.org/2000/svg" xmlns:xlink="http://www.w3.org/1999/xlink" x="0px" y="0px" width="700px"
	 height="700px" viewBox="0 0 700 700" enable-background="new 0 0 700 700" xml:space="preserve">
<g id="레이어_2">
	<rect width="700" height="700"/>
</g>
<g id="Layer_1">
	<path fill="#FFFFFF" d="M0,0v700h700V0H0z M319,591.5c0,18.5-15,33.5-33.5,33.5h-21V285H319V591.5z M340,192v43.25
		c0,18.5-15,33.25-33.25,33.25h-29c-18.5,0-33.25-15-33.25-33.25V192V84.5c0-5.25,4.25-9.5,9.5-9.5h13.75v117H280V84.5
		c0-5.25,4.25-9.5,9.5-9.5h13.75v117h13.25V84.5c0-5.25,4.25-9.5,9.5-9.5h13.75H340V192z M455.75,591.5c0,18.5-15,33.5-33.5,33.5
		h-21V364.25h54.5V591.5z M455.75,347.75h-31.5c-19.75,0-35.75-16-35.75-35.75V110.75C388.5,91,404.5,75,424.25,75h31.5V347.75z"/>
</g>
</svg>
