<?xml version="1.0" encoding="utf-8"?>
<!-- Generator: Adobe Illustrator 16.0.0, SVG Export Plug-In . SVG Version: 6.00 Build 0)  -->
<!DOCTYPE svg PUBLIC "-//W3C//DTD SVG 1.1//EN" "http://www.w3.org/Graphics/SVG/1.1/DTD/svg11.dtd">
<svg version="1.1" xmlns="http://www.w3.org/2000/svg" xmlns:xlink="http://www.w3.org/1999/xlink" x="0px" y="0px"
	 width="46.254px" height="46.254px" viewBox="0 0 46.254 46.254" enable-background="new 0 0 46.254 46.254" xml:space="preserve">
<g id="레이어_2">
	<rect x="-2.373" y="-1.373" stroke="#000000" stroke-miterlimit="10" width="51" height="49.25"/>
</g>
<g id="Layer_1">
	<path fill="#FFFFFF" d="M0,46.256h46.254V0H0V46.256z M35.034,27.488c0,2.313-0.363,4.306-1.135,5.847
		c-1.857,3.854-5.756,5.758-11.239,5.758c-5.529,0-9.427-1.904-11.239-5.803c-0.771-1.541-1.134-3.533-1.134-5.802V8.771h5.439
		v18.354c0,1.588,0.272,2.945,0.816,4.033c1.042,2.131,3.127,3.354,6.118,3.354c2.991,0,5.076-1.224,6.119-3.354
		c0.543-1.088,0.815-2.445,0.815-4.078V8.771h5.438v18.717H35.034z"/>
</g>
</svg>
