<?xml version="1.0" encoding="utf-8"?>
<!-- Generator: Adobe Illustrator 16.0.0, SVG Export Plug-In . SVG Version: 6.00 Build 0)  -->
<!DOCTYPE svg PUBLIC "-//W3C//DTD SVG 1.1//EN" "http://www.w3.org/Graphics/SVG/1.1/DTD/svg11.dtd">
<svg version="1.1" xmlns="http://www.w3.org/2000/svg" xmlns:xlink="http://www.w3.org/1999/xlink" x="0px" y="0px" width="700px"
	 height="700px" viewBox="0 0 700 700" enable-background="new 0 0 700 700" xml:space="preserve">
<g id="레이어_2">
	<rect width="700" height="695.5"/>
</g>
<g id="Layer_1">
	<path fill="#FFFFFF" d="M579.5,123H120.75c-8.5,0-15.25,6.75-15.25,15.25V408.5c0,8.5,6.75,15.25,15.25,15.25h458.5
		c8.5,0,15.25-6.75,15.25-15.25h0.25V138.25C594.75,129.75,588,123,579.5,123z M260,320.75h-7.75l-19.25-55l-18.25,55h-8L176.5,228
		h18l17,55.25L229.25,228h8.5l16.75,54l17.5-54h17.5L260,320.75z M377,320.75h-7.75l-19.5-55l-18,55h-8.25L293.25,228h18.25
		l16.75,55.25L346,228h8.5l16.75,54l17.5-54h17.5L377,320.75z M493.75,320.75H486l-19.25-55l-18.25,55h-8L410.25,228h18l17,55.25
		L463,228h8.5l16.75,54l17.5-54h17.5L493.75,320.75z M0,0v700h700V0H0z M619.75,452.75c0,23.75-19.25,42.75-42.75,42.75H400V560h100
		v27H199.25v-27H299.5v-64.5H122.25c-23.75,0-42.75-19.25-42.75-42.75v-312C79.5,117,98.75,98,122.25,98H577
		c23.5,0,42.5,19,42.75,42.75V452.75z"/>
</g>
</svg>
