<?xml version="1.0" encoding="utf-8"?>
<!-- Generator: Adobe Illustrator 16.0.0, SVG Export Plug-In . SVG Version: 6.00 Build 0)  -->
<!DOCTYPE svg PUBLIC "-//W3C//DTD SVG 1.1//EN" "http://www.w3.org/Graphics/SVG/1.1/DTD/svg11.dtd">
<svg version="1.1" xmlns="http://www.w3.org/2000/svg" xmlns:xlink="http://www.w3.org/1999/xlink" x="0px" y="0px" width="700px"
	 height="700px" viewBox="0 0 700 700" enable-background="new 0 0 700 700" xml:space="preserve">
<g id="레이어_2">
	<rect width="700" height="700"/>
</g>
<g id="Layer_1">
	<path fill="#FFFFFF" d="M0,0h700v700H0V0z M477.75,127.5H412.5V74H287.25v53.5h-65.5c-9.5,0-17,7.75-17,17V588c0,9.5,7.75,17,17,17
		h256c9.5,0,17-7.75,17-17V144.5C494.75,135.25,487,127.5,477.75,127.5z M467.25,577.5h-235V155h235V577.5z M399.5,193l-104,152
		l42.75,5L299.5,486.75l106-153l-45-5.75L399.5,193z"/>
</g>
</svg>
