<?xml version="1.0" encoding="utf-8"?>
<!-- Generator: Adobe Illustrator 16.0.0, SVG Export Plug-In . SVG Version: 6.00 Build 0)  -->
<!DOCTYPE svg PUBLIC "-//W3C//DTD SVG 1.1//EN" "http://www.w3.org/Graphics/SVG/1.1/DTD/svg11.dtd">
<svg version="1.1" xmlns="http://www.w3.org/2000/svg" xmlns:xlink="http://www.w3.org/1999/xlink" x="0px" y="0px" width="700px"
	 height="700px" viewBox="0 0 700 700" enable-background="new 0 0 700 700" xml:space="preserve">
<g id="레이어_2">
	<rect width="700" height="700"/>
</g>
<g id="Layer_1">
	<path fill="#FFFFFF" d="M467.75,160.25v34.25h-105v-34.25c0,0-1.5-40.75,39-52.5c11.75-1.25,27.25,0,27.25,0
		C469.5,119.5,467.75,160.25,467.75,160.25z M418.25,558.75L400,294.25h-36.75v38.5c0,45-36.5,81.5-81.5,81.5
		c-10.75,0-21-2.25-30.5-6c-29.75-12-51-41.25-51-75.5v-38.5H162.5l-19.25,309.5h277.5l-2.25-43.25L418.25,558.75z M700,0v700H0V0
		H700z M580.75,194.5h-0.25h-85v-34.25c0-34.25-19-53.5-19-53.5C457.5,82.25,429,80,429,80c-15.75-1.5-27.25,0-27.25,0
		s-28.75,2.25-47.5,26.75c0,0-19,19.25-19,53.5v34.25H251.5v72.25H136.75l-23,364.5H449.5l-3.75-72.5H580.5V194.5H580.75z
		 M251,377.25c8.75,6,19.25,9.5,30.5,9.5c29.75,0,54-24.25,54-54v-38.5H251h-23.5v38.5C227.5,351.25,236.75,367.5,251,377.25z"/>
</g>
</svg>
