<?xml version="1.0" encoding="utf-8"?>
<!-- Generator: Adobe Illustrator 16.0.0, SVG Export Plug-In . SVG Version: 6.00 Build 0)  -->
<!DOCTYPE svg PUBLIC "-//W3C//DTD SVG 1.1//EN" "http://www.w3.org/Graphics/SVG/1.1/DTD/svg11.dtd">
<svg version="1.1" xmlns="http://www.w3.org/2000/svg" xmlns:xlink="http://www.w3.org/1999/xlink" x="0px" y="0px"
	 width="46.254px" height="46.254px" viewBox="0 0 46.254 46.254" enable-background="new 0 0 46.254 46.254" xml:space="preserve">
<g id="레이어_2">
	<rect x="-1.539" y="-1.206" width="49.833" height="48.833"/>
</g>
<g id="Layer_1">
	<path fill="#FFFFFF" d="M0,46.254h46.254V0H0V46.254z M13.603,5.655c0-0.219,0.179-0.397,0.398-0.397h5.033
		c0.22,0,0.398,0.178,0.398,0.397v0.456c0,0.219-0.178,0.398-0.398,0.398H14c-0.219,0-0.398-0.179-0.398-0.398L13.603,5.655
		L13.603,5.655z M12.125,7.553c0-0.22,0.178-0.396,0.398-0.396h7.858c0.219,0,0.398,0.177,0.398,0.396V7.98
		c0,0.22-0.179,0.398-0.398,0.398h-7.858c-0.22,0-0.398-0.178-0.398-0.398V7.553z M11.865,9.359c0-0.219,0.177-0.398,0.397-0.398
		h8.578c0.22,0,0.398,0.179,0.398,0.398v0.427c0,0.219-0.178,0.397-0.398,0.397h-8.578c-0.22,0-0.397-0.178-0.397-0.397V9.359z
		 M11.609,11.17c0-0.22,0.177-0.398,0.397-0.398h9.012c0.22,0,0.398,0.178,0.398,0.398v0.422c0,0.219-0.178,0.397-0.398,0.397
		h-9.012c-0.22,0-0.397-0.178-0.397-0.397V11.17z M16.494,31.26c-7.46,0.502-7.329-7.223-7.329-7.223
		c0.044-4.395,1.807-5.916,1.807-5.916c1.675-1.304,1.434-4.481,1.434-4.481h4.09h4.09c0,0-0.241,3.177,1.434,4.481
		c0,0,1.764,1.521,1.807,5.916C23.827,24.038,23.956,31.762,16.494,31.26 M36.847,41.329c-1.158,0.629-2.769,0.482-2.769,0.482
		s-1.611,0.146-2.769-0.482V27.064l0.772-0.546v-0.943l0.834-0.49L33.377,9.27l-0.461-0.535l0.461-3.511h0.699h0.7l0.46,3.511
		l-0.46,0.535l0.46,15.814l0.836,0.49v0.943l0.772,0.546v14.265H36.847z M31.978,27.385h0.278v13.578h-0.278V27.385z"/>
</g>
</svg>
