<?xml version="1.0" encoding="utf-8"?>
<!-- Generator: Adobe Illustrator 16.0.0, SVG Export Plug-In . SVG Version: 6.00 Build 0)  -->
<!DOCTYPE svg PUBLIC "-//W3C//DTD SVG 1.1//EN" "http://www.w3.org/Graphics/SVG/1.1/DTD/svg11.dtd">
<svg version="1.1" xmlns="http://www.w3.org/2000/svg" xmlns:xlink="http://www.w3.org/1999/xlink" x="0px" y="0px"
	 width="46.256px" height="46.254px" viewBox="0 0 46.256 46.254" enable-background="new 0 0 46.256 46.254" xml:space="preserve">
<g id="레이어_2">
	<rect x="-1.039" y="-1.789" width="50" height="49.833"/>
</g>
<g id="Layer_1">
	<path fill="#FFFFFF" d="M46.256,0v46.254H0V0h22.334v10.8h-0.171h-7.817l0.111,0.001c-1.464,0-2.652,1.188-2.652,2.653
		l-0.001-0.128v26.521l0.001-0.128c0,1.465,1.188,2.65,2.652,2.65l-0.111,0.002h0.799h0.005v2.883h2.547v-2.883H28.56v2.879h2.558
		v-2.879h0.794l-0.112-0.002c1.466,0,2.653-1.187,2.653-2.65l0.001,0.128V13.326l-0.001,0.128c0-1.465-1.188-2.653-2.653-2.653
		L31.91,10.8h-8.019V0H46.256z M20.75,36.029c0,1.312,1.062,2.373,2.373,2.373c1.312,0,2.373-1.062,2.373-2.373
		s-1.062-2.372-2.373-2.372C21.812,33.657,20.75,34.717,20.75,36.029 M30.926,12.489H15.381c-0.993,0-1.798,0.805-1.798,1.797
		c0,0.993,0.805,1.798,1.798,1.798h15.545c0.993,0,1.798-0.805,1.798-1.798C32.724,13.293,31.919,12.489,30.926,12.489
		 M32.692,19.722c0-0.977-0.791-1.769-1.769-1.769l0.095-0.002H15.256l0.093,0.002c-0.976,0-1.768,0.792-1.768,1.769h0.006v8.429
		h-0.006c0,0.977,0.792,1.768,1.768,1.768l-0.093,0.002h15.763l-0.095-0.002c0.978,0,1.769-0.791,1.769-1.768h-0.006v-8.429H32.692z
		"/>
</g>
</svg>
