<?xml version="1.0" encoding="utf-8"?>
<!-- Generator: Adobe Illustrator 16.0.0, SVG Export Plug-In . SVG Version: 6.00 Build 0)  -->
<!DOCTYPE svg PUBLIC "-//W3C//DTD SVG 1.1//EN" "http://www.w3.org/Graphics/SVG/1.1/DTD/svg11.dtd">
<svg version="1.1" xmlns="http://www.w3.org/2000/svg" xmlns:xlink="http://www.w3.org/1999/xlink" x="0px" y="0px" width="53.86px"
	 height="53.86px" viewBox="1.284 -0.002 53.86 53.86" enable-background="new 1.284 -0.002 53.86 53.86" xml:space="preserve">
<g id="레이어_2">
	<rect x="1.284" y="0" width="53.86" height="53.858"/>
</g>
<g id="레이어_3">
	<rect x="5.178" y="0" fill="#FFFFFF" width="46.25" height="53.857"/>
</g>
<g id="Layer_1">
	<path d="M4.119,0h48.189v53.857H4.119V0L4.119,0z M20.183,47.857c4.156,0,7.606-2.188,9.369-5.435H27.3
		c-1.552,2.117-4.086,3.457-7.115,3.457c-5.143,0-8.806-3.67-8.806-8.821c0-1.906,0.494-3.529,1.409-4.871v-3.035
		c-2.112,1.906-3.382,4.729-3.382,7.906C9.406,43.27,13.985,47.857,20.183,47.857L20.183,47.857z M20.748,14.822
		c0-1.623-1.127-2.753-2.605-2.753c-1.55,0-2.677,1.13-2.677,2.753c0,1.553,1.127,2.683,2.677,2.683
		C19.621,17.505,20.748,16.375,20.748,14.822L20.748,14.822z M30.257,37.977l-1.55-4.73c-0.28-0.848-1.127-1.412-2.112-1.412h-4.789
		v-5.151H27.3v-0.705c0-1.343-0.916-2.261-2.255-2.261h-3.239v-1.692c0-2.26-1.48-3.529-3.663-3.529
		c-2.186,0-3.663,1.271-3.663,3.529v9.881c0,1.695,1.197,2.895,2.888,2.895h8.665l2.042,5.931h5.071v-0.635
		c0-1.343-0.916-2.117-2.254-2.117h-0.635V37.977z M29.826,21.342h1.324l1.324-3.718c0.186-0.519,0.332-0.97,0.465-1.446h0.039
		c0.119,0.465,0.291,0.941,0.477,1.46l1.313,3.704h1.351l2.939-8.803h-1.644l-1.51,4.979c-0.158,0.518-0.266,0.981-0.396,1.514
		h-0.04c-0.134-0.518-0.318-1.049-0.49-1.54l-1.682-4.952H31.68l0.545,1.527l-1.181,3.518c-0.157,0.479-0.305,0.931-0.45,1.461
		h-0.025c-0.146-0.53-0.279-1.022-0.424-1.475l-1.604-5.031H26.74L29.826,21.342L29.826,21.342z M46.584,19.469
		c-0.623,0.359-1.284,0.611-2.146,0.611c-1.789,0-2.902-1.274-2.902-3.12c0-1.726,1.008-3.159,2.955-3.159
		c0.849,0,1.576,0.214,2.252,0.57v-1.486c-0.543-0.237-1.338-0.425-2.291-0.425c-2.809,0-4.61,2.031-4.61,4.555
		c0,2.562,1.551,4.405,4.411,4.405c0.875,0,1.802-0.157,2.769-0.688L46.584,19.469L46.584,19.469z"/>
</g>
</svg>
