<?xml version="1.0" encoding="utf-8"?>
<!-- Generator: Adobe Illustrator 16.0.0, SVG Export Plug-In . SVG Version: 6.00 Build 0)  -->
<!DOCTYPE svg PUBLIC "-//W3C//DTD SVG 1.1//EN" "http://www.w3.org/Graphics/SVG/1.1/DTD/svg11.dtd">
<svg version="1.1" id="Layer_1" xmlns="http://www.w3.org/2000/svg" xmlns:xlink="http://www.w3.org/1999/xlink" x="0px" y="0px"
	 width="700px" height="700px" viewBox="150 0 700 700" enable-background="new 150 0 700 700" xml:space="preserve">
<path d="M506.5,341.25h44v55.5c-1.5-0.25-3-0.25-4.75-0.5C528,380.5,515,361.75,506.5,341.25z M574,166c-0.75,0-1.75,0-3-0.25v57
	h45.25C607.25,201.5,593.25,182,574,166z M461.75,341.25c11,18,26.5,32.75,45.25,42.5c-9.75-13.25-17.25-27.5-22.5-42.5H461.75z
	 M478.75,243.5h-27.5c-4,11.75-6.25,24.5-6.25,37.75c0,14,2.5,27.25,7,39.5h26.5C472.75,295.25,472.75,268.75,478.75,243.5z
	 M624,320.75c6.25-25.25,6.25-52-0.5-77.25h-52.25v77.25H624z M550.5,222.75v-57c-0.25,0-0.5,0-0.75,0
	c-19.25,16-33.25,35.75-42.5,57H550.5z M510.5,176.75c-20.75,10.25-38,26.25-49.75,46H485C491,206.5,499.5,191,510.5,176.75z
	 M499.75,320.75h51V243.5h-50.5C493.5,268.75,493.25,295.25,499.75,320.75z M571.25,396.75c2.5-0.25,4.75-0.5,7-0.75
	c17.5-15.75,30.5-34.5,38.75-54.75h-45.75V396.75z M614.25,178.25c10.25,13.75,18.5,28.75,24.25,44.5H661
	C650,204,633.75,188.5,614.25,178.25z M791.25,282.25c0,26.75-10,53-29,76.5s-46.75,43.5-79.75,57.75c-0.125,0-0.188,0-0.188,0
	s0.063,0,0.188,0c-4.75,2-13,5-18.75,7.25L672,442l16.5,36.5l-37.75-30.25l-19.5-15.75c-3.75,1-7,1.75-9.75,2.25
	c-5.5,1-10.75,1.75-16.25,2.5c-14,1.75-28.5,2.75-43,2.75c-1.25,0-2.75,0-4,0c-61-0.75-118-17.75-160.75-48.25
	c-42-29.75-65-68.75-65-109.5c0-17.25,4-34,11.75-49.75c10.75-22,28.5-42.5,52.75-59.75c43.75-31.25,102.25-48.5,164.75-48.5
	s121,17.25,164.75,48.5C768.25,202.5,791.25,241.5,791.25,282.25z M697.25,281.25C697,214,648,158,583.75,147.25
	c-0.5,0-1-0.25-1.5-0.25c-7-1-14-1.75-21.25-1.75c-6.75,0-13.25,0.5-19.5,1.5c-0.25,0-0.5,0-0.75,0
	c-65.5,9.75-115.5,66.25-115.5,134.5c0,66.5,47.75,121.75,111,133.5c2.5,0.5,5,0.75,7.5,1.25c5.75,0.75,11.5,1.25,17.5,1.25
	c6.5,0,12.75-0.5,19-1.25c2.75-0.5,5.5-0.75,8.25-1.5C650.5,401.75,697.25,347,697.25,281.25z M850,0v700H150V0H850z M811.25,282.25
	c0-98.25-111.75-178-249.5-178c-117.5,0-216.25,58.25-242.5,136.25C261.5,263.25,222.5,306.75,222.5,357s39.5,94,97.75,116.75
	l-30.5,65l70.25-53.5c16.25,3.25,33.25,5,51,5c46.25,0,88.5-11.75,121-31.25c9.75,0.75,19.75,1.25,30,1.25c21.75,0,43-2,63-5.75
	c0.25,0,0.75-0.25,1.25-0.25l114.5,91.5l-50-111C763,403.5,811.25,346.75,811.25,282.25z M618,382c17.25-9.75,31.75-23.75,42-40.75
	h-20.75C634,355.5,627,369.25,618,382z M645,320.75h24.75c4.5-12.5,7-25.75,7-39.5c0-13.25-2.25-26-6.25-37.75h-25.75
	C650.75,268.75,650.75,295.25,645,320.75z"/>
</svg>
