<?xml version="1.0" encoding="utf-8"?>
<!-- Generator: Adobe Illustrator 16.0.0, SVG Export Plug-In . SVG Version: 6.00 Build 0)  -->
<!DOCTYPE svg PUBLIC "-//W3C//DTD SVG 1.1//EN" "http://www.w3.org/Graphics/SVG/1.1/DTD/svg11.dtd">
<svg version="1.1" id="Layer_1" xmlns="http://www.w3.org/2000/svg" xmlns:xlink="http://www.w3.org/1999/xlink" x="0px" y="0px"
	 width="700px" height="700px" viewBox="0 0 700 700" enable-background="new 0 0 700 700" xml:space="preserve">
<path d="M0,0v346.75h189.25C278.5,353,280,428.25,279.75,440c38.25,4.25,68,36.75,68.25,76c0,1-0.75,1.75-1.75,1.75H184
	c-1,0-1.75-0.75-1.75-1.75c0-38.75,28.5-70.5,65.75-75.75c-1.5-60.75-58.5-62.75-58.5-62.75H0V700h700V248H281v56.5h-28V37h28v160.5
	h128.25v-51.75c0-28.25,23-51.25,51.25-51.25H700V0H0z M207.25,654.25c-9,0-16.5-7.25-16.5-16.5s16.5-31.25,16.5-31.25
	s16.5,22,16.5,31.25C223.75,646.75,216.25,654.25,207.25,654.25z M207.25,587.5c-9,0-16.5-7.25-16.5-16.5c0-9,16.5-31.25,16.5-31.25
	s16.5,22.25,16.5,31.25S216.25,587.5,207.25,587.5z M264.5,654.25c-9,0-16.5-7.25-16.5-16.5s16.5-31.25,16.5-31.25
	s16.5,22,16.5,31.25C281,646.75,273.5,654.25,264.5,654.25z M264.5,587.5c-9,0-16.5-7.25-16.5-16.5c0-9,16.5-31.25,16.5-31.25
	S281,562,281,571S273.5,587.5,264.5,587.5z M321.75,654.25c-9,0-16.5-7.25-16.5-16.5s16.5-31.25,16.5-31.25s16.5,22,16.5,31.25
	C338.25,646.75,330.75,654.25,321.75,654.25z M321.75,587.5c-9,0-16.5-7.25-16.5-16.5c0-9,16.5-31.25,16.5-31.25
	s16.5,22.25,16.5,31.25S330.75,587.5,321.75,587.5z M345,176.5c-23.196,0-42-18.804-42-42s18.804-42,42-42s42,18.804,42,42
	S368.196,176.5,345,176.5z"/>
</svg>
