<?xml version="1.0" encoding="utf-8"?>
<!-- Generator: Adobe Illustrator 16.0.0, SVG Export Plug-In . SVG Version: 6.00 Build 0)  -->
<!DOCTYPE svg PUBLIC "-//W3C//DTD SVG 1.1//EN" "http://www.w3.org/Graphics/SVG/1.1/DTD/svg11.dtd">
<svg version="1.1" id="Layer_1" xmlns="http://www.w3.org/2000/svg" xmlns:xlink="http://www.w3.org/1999/xlink" x="0px" y="0px"
	 width="700px" height="700px" viewBox="150 0 700 700" enable-background="new 150 0 700 700" xml:space="preserve">
<path d="M150,0v700h700V0H150z M469,591.5c0,18.5-15,33.5-33.5,33.5h-21V285H469V591.5z M490,192v43.25c0,18.5-15,33.25-33.25,33.25
	h-29c-18.5,0-33.25-15-33.25-33.25V192V84.5c0-5.25,4.25-9.5,9.5-9.5h13.75v117H430V84.5c0-5.25,4.25-9.5,9.5-9.5h13.75v117h13.25
	V84.5c0-5.25,4.25-9.5,9.5-9.5h13.75H490V192z M605.75,591.5c0,18.5-15,33.5-33.5,33.5h-21V364.25h54.5V591.5z M605.75,347.75h-31.5
	c-19.75,0-35.75-16-35.75-35.75V110.75C538.5,91,554.5,75,574.25,75h31.5V347.75z"/>
</svg>
