<?xml version="1.0" encoding="utf-8"?>
<!-- Generator: Adobe Illustrator 16.0.0, SVG Export Plug-In . SVG Version: 6.00 Build 0)  -->
<!DOCTYPE svg PUBLIC "-//W3C//DTD SVG 1.1//EN" "http://www.w3.org/Graphics/SVG/1.1/DTD/svg11.dtd">
<svg version="1.1" id="Layer_1" xmlns="http://www.w3.org/2000/svg" xmlns:xlink="http://www.w3.org/1999/xlink" x="0px" y="0px"
	 width="700px" height="700px" viewBox="150 0 700 700" enable-background="new 150 0 700 700" xml:space="preserve">
<path d="M326.5,462.5v9c0,1.5-0.25,3-0.5,4.25c-1.75,5.25-6.75,9.5-13.25,9.5c-5.75,0-10-3.25-10-9.75
	C302.75,465.5,313,462.25,326.5,462.5z M322.75,100c-10.75,0-15,9.75-15.75,16.75h30.25C337.25,110.5,334.5,100,322.75,100z
	 M320.25,281.25h30.25c0-6.25-2.75-16.75-14.5-16.75C325.25,264.5,321,274.25,320.25,281.25z M639,264.5
	c-10.75,0-15,9.75-15.75,16.75h30.25C653.5,275,650.75,264.5,639,264.5z M850,0v700H150V0H850z M566,127c0,25.75,17,42,43.5,42
	c9.75,0,18.25-1.75,22.75-3.75l-3-18.75c-3.75,1.5-8.5,2.5-14.5,2.5c-12.5,0-22.5-8-22.5-23c-0.25-13.5,8.5-23,22-23
	c6.75,0,11.25,1.25,14.25,2.5l4-19c-5.5-2-12.75-3.25-19.5-3.25C582.5,83.25,566,103,566,127z M521.75,62.25
	C521.5,69.25,527,75,535,75c8.25,0,13.75-5.75,13.75-12.75c-0.25-7.5-5.5-13-13.5-13C527,49.25,521.5,54.75,521.75,62.25z
	 M522.25,85v82.25h25.5V85H522.25z M427.25,85l30,82.25h25.5L513.25,85h-27l-10.5,38.25c-1.75,7-3.25,13.25-4.5,20h-0.5
	c-1.25-6.5-2.75-13-4.75-20L455,85H427.25z M367.75,85c0.5,7,0.75,15,0.75,27v55.25H394V125.5c0-2,0.25-4,0.5-5.75
	c1.75-8,8-13,17.5-13c3,0,5.25,0.5,7,0.75V83.25C417,83,415.75,83,413.5,83c-8,0-18,5-22.25,17h-0.75l-0.75-15H367.75z
	 M337.75,247.75c-28.5,0-41.5,23-41.5,43.75c0,25.5,15.75,41.75,43.75,41.75c11,0,21.25-1.75,29.75-5L366.5,311
	c-7,2-14,3.25-22.75,3.25c-11.903,0-22.325-5.168-23.225-15.5H373.5c0.25-1.75,0.75-5.75,0.75-10
	C374.25,268.5,364.25,247.75,337.75,247.75z M283,127.25c0,25.5,15.75,41.75,43.75,41.75c11,0,21.25-1.75,29.75-5l-3.25-17.25
	c-7,2-14,3.25-22.75,3.25c-11.903,0-22.325-5.168-23.225-15.5h52.975c0.25-1.75,0.75-5.75,0.75-10c0-20.25-10-41-36.5-41
	C296,83.5,283,106.5,283,127.25z M251.75,135.5c0,7.5-6.25,12.25-18,12.25c-11,0-21.5-3.5-28.5-7l-5.25,21c6.25,3.75,19,7,32,7
	c31.25,0,45.75-16,45.75-35c0-16-9.5-26.25-29.5-33.75c-14.5-5.5-21-8.75-21-16c0-6,5.25-11,16.5-11s19.25,3.25,23.75,5.5l6-20.75
	c-6.75-3-16.25-5.75-29-5.75c-26.5,0-42.75,14.75-42.75,34c0,16.5,12.25,27,31,33.5C246.25,124.5,251.75,128.5,251.75,135.5z
	 M199.25,276.5c0,32.25,20,56.5,59.25,56.5c13.75,0,24.25-2.5,29-4.75L283.75,308c-5,2-13.5,3.75-21.25,3.75
	c-22.75,0-36.25-14.25-36.25-37c0-25.25,15.75-37.5,36-37.5c9,0,16.25,2,21.5,4.25l5.25-20.25c-4.75-2.25-14.75-5-28-5
	C226.75,216.25,199.25,237.75,199.25,276.5z M230,432.75v-23.5h32l7.5-21h-65V501.5h63v-21H230v-27h31.25h0.25h-0.25v-20.75H230z
	 M352.5,501c-1-4.5-1.25-12-1.25-20v-28.5c0-19.25-8.5-35.5-36-35.5c-15,0-26.25,4-32,7.25l4.75,16.5c5.5-3.5,14.25-6.25,22.75-6.25
	c12.75,0,15,6.25,15,10.5v1.25c-29,0-48.25,10.25-48.25,31.5C277.5,491,287.25,503,304,503c9.75,0,18-3.5,23.5-10h0.5l1.5,8.25V501
	H352.5z M426,476.25c0-12-6.75-19.75-22.25-25.25c-10-3.5-13.25-5.75-13.25-9.5c0-4.25,3.5-6.75,9.75-6.75c7,0,14,2.75,17.75,4.75
	l4.5-17.75c-5-2.5-13.75-4.75-23.25-4.75c-20.5,0-33.5,11.75-33.5,27c-0.25,9.75,6.25,19,23.25,24.75c9.5,3.25,12,5.25,12,9.5
	s-3.25,7-11,7c-7.5,0-17.25-3.5-22-6.25l-4,18c6.25,3.5,15.75,5.75,26.5,5.75C414,502.75,426,491.5,426,476.25z M434.5,286v45.5H460
	v-48.75c0-24.25-12.75-35.25-29.5-35.25c-13.5,0-22,7.75-25.25,13h-0.5l-1.25-11.25h-22.25c0.5,7.25,0.75,16,0.75,26.25v56.25h25.5
	v-47.5c0-2.5,0.25-5,1-6.5c1.75-4.75,6-9.5,13-9.5C430.75,268.25,434.5,275.5,434.5,286z M496,496.5l-7.75-16c-2,0.25-3.25,2-6.5,2
	c-7.75,0-10-4.5-10-14.5v-29.75h14.5l5.75-17l-20.25-2v-23.5l-25,6.25v17.75h-11v18.75h11V472c0,11.5,2.25,19.5,7,24.25
	c4.25,4.25,11,7,19.25,7C480.25,503.25,489,501.5,496,496.5z M533,329.75l-7.75-16c-2,0.25-3.25,2-6.5,2c-7.75,0-10-4.5-10-14.5
	V271.5h14.5l5.75-17l-20.25-2V229l-25,5.75v17.75h-11v19.25h11v33.5c0,11.5,2.25,19.5,7,24.25c4.25,4.25,11,7,19.25,7
	C517.25,336.5,526,334.75,533,329.75z M592.25,271.75L600,251c-3.25-2.25-11-3.75-13-3.5c-8.75,1.25-18,5-22.25,17H564l-0.75-15h-22
	c0.5,7,0.75,15,0.75,27h-0.25v55h25.5v-41.75c0-2,0.25-4,0.5-5.75c1.75-8,8-13,17.5-13C588.25,271,590.5,271.5,592.25,271.75z
	 M677.5,288.75c0-20.25-10.25-41-36.75-41c-28.5,0-41.5,23-41.5,43.75c0,25.5,15.75,41.75,43.75,41.75c11,0,21.25-1.75,29.75-5
	L669.5,311c-7,2-14,3.25-22.75,3.25c-11.903,0-22.325-5.168-23.225-15.5h53.225C677,297,677.5,293,677.5,288.75z M710.5,124.5
	c0-20.25-10-41-36.5-41c-28.5,0-41.5,23-41.5,43.75c0,25.5,15.75,41.75,43.75,41.75c11,0,21.25-1.75,29.75-5l-3.25-17.25
	c-7,2-14,3.25-22.75,3.25c-11.903,0-22.325-5.168-23.225-15.5h52.975C710,132.75,710.5,128.75,710.5,124.5z M672.25,100
	c-10.75,0-15,9.75-15.75,16.75h30.25C686.75,110.5,684,100,672.25,100z M307.25,134.5h0.025c-0.007-0.084-0.02-0.166-0.025-0.25
	V134.5z M656.75,134.5h0.025c-0.007-0.084-0.02-0.166-0.025-0.25V134.5z M320.5,298.75h0.025c-0.007-0.084-0.02-0.166-0.025-0.25
	V298.75z M623.5,298.75h0.025c-0.007-0.084-0.02-0.166-0.025-0.25V298.75z"/>
</svg>
