<?xml version="1.0" encoding="utf-8"?>
<!-- Generator: Adobe Illustrator 16.0.0, SVG Export Plug-In . SVG Version: 6.00 Build 0)  -->
<!DOCTYPE svg PUBLIC "-//W3C//DTD SVG 1.1//EN" "http://www.w3.org/Graphics/SVG/1.1/DTD/svg11.dtd">
<svg version="1.1" id="Layer_1" xmlns="http://www.w3.org/2000/svg" xmlns:xlink="http://www.w3.org/1999/xlink" x="0px" y="0px"
	 width="700px" height="700px" viewBox="150 0 700 700" enable-background="new 150 0 700 700" xml:space="preserve">
<path d="M617.75,160.25v34.25h-105v-34.25c0,0-1.5-40.75,39-52.5c11.75-1.25,27.25,0,27.25,0
	C619.5,119.5,617.75,160.25,617.75,160.25z M568.25,558.75L550,294.25h-36.75v38.5c0,45-36.5,81.5-81.5,81.5
	c-10.75,0-21-2.25-30.5-6c-29.75-12-51-41.25-51-75.5v-38.5H312.5l-19.25,309.5h277.5l-2.25-43.25L568.25,558.75z M850,0v700H150V0
	H850z M730.75,194.5h-0.25h-85v-34.25c0-34.25-19-53.5-19-53.5C607.5,82.25,579,80,579,80c-15.75-1.5-27.25,0-27.25,0
	s-28.75,2.25-47.5,26.75c0,0-19,19.25-19,53.5v34.25H401.5v72.25H286.75l-23,364.5H599.5l-3.75-72.5H730.5V194.5H730.75z
	 M401,377.25c8.75,6,19.25,9.5,30.5,9.5c29.75,0,54-24.25,54-54v-38.5H401h-23.5v38.5C377.5,351.25,386.75,367.5,401,377.25z"/>
</svg>
