<?xml version="1.0" encoding="utf-8"?>
<!-- Generator: Adobe Illustrator 16.0.0, SVG Export Plug-In . SVG Version: 6.00 Build 0)  -->
<!DOCTYPE svg PUBLIC "-//W3C//DTD SVG 1.1//EN" "http://www.w3.org/Graphics/SVG/1.1/DTD/svg11.dtd">
<svg version="1.1" xmlns="http://www.w3.org/2000/svg" xmlns:xlink="http://www.w3.org/1999/xlink" x="0px" y="0px" width="53.86px"
	 height="53.86px" viewBox="0.179 -0.002 53.86 53.86" enable-background="new 0.179 -0.002 53.86 53.86" xml:space="preserve">
<g id="레이어_2">
	<rect x="0.179" y="0" width="53.86" height="53.857"/>
</g>
<g id="레이어_3">
	<rect x="6.761" y="1.262" fill="#FFFFFF" width="41.833" height="50.75"/>
</g>
<g id="Layer_1">
	<path d="M3.015,0h48.189v53.857H3.015V0L3.015,0z M26.326,45.76V34.617h1.569v13.24h0.785c1.242,0,2.094-0.853,2.094-2.099V34.355
		c1.505-0.133,2.289-0.328,2.878-0.525c-0.671-3.297-2.683-14.028-2.683-14.028l8.438,3.278c0.459-0.59,0.522-1.049,0.522-1.508
		c0-0.656-0.326-1.313-1.504-1.771l-8.635-3.538c-0.98-0.394-1.767-0.656-2.681-0.656c-0.915,0-1.701,0.263-2.683,0.656
		l-8.634,3.538c-1.177,0.459-1.504,1.114-1.504,1.771c0,0.459,0.064,0.918,0.522,1.572l8.438-3.277c0,0-1.999,10.621-2.682,13.962
		c0.653,0.197,1.569,0.394,2.878,0.525v13.502h0.784C25.474,47.857,26.326,47.006,26.326,45.76L26.326,45.76z M29.857,12.001
		c0-1.639-1.178-2.817-2.747-2.817s-2.747,1.18-2.747,2.817c0,1.64,1.178,2.819,2.747,2.819S29.857,13.641,29.857,12.001
		L29.857,12.001z"/>
</g>
</svg>
