<?xml version="1.0" encoding="utf-8"?>
<!-- Generator: Adobe Illustrator 16.0.0, SVG Export Plug-In . SVG Version: 6.00 Build 0)  -->
<!DOCTYPE svg PUBLIC "-//W3C//DTD SVG 1.1//EN" "http://www.w3.org/Graphics/SVG/1.1/DTD/svg11.dtd">
<svg version="1.1" id="Layer_1" xmlns="http://www.w3.org/2000/svg" xmlns:xlink="http://www.w3.org/1999/xlink" x="0px" y="0px"
	 width="700px" height="700px" viewBox="0 0 700 700" enable-background="new 0 0 700 700" xml:space="preserve">
<path d="M0,0v700h700V0H0z M615,162.5V250h-39h-0.25h-39v-40.25h39V162.5H512.5v400V575v12.5H250v-25h237.25v-400h-24.5v375H437.5
	h-225h-25.25v-375h-63.5v47.25H163V250h-39.25H84.5V125h39.25h452H615V162.5z M212.5,512.5h225v-350h-225V512.5z M267.75,381.5
	L271,365h11.25c0,0,11.5-76,96-47.25l-6.5,32.25c0,0-34.25-32-57.75,15h53.75l-5,16.5h-50.5V393h50l-5,16.5h-43
	c14,46.75,59.25,15.75,59.25,15.75l4.75,1v28.25c-74.25,29.75-93.5-36-95.75-45h-14.75L271,393h9v-11.5H267.75z"/>
</svg>
