<?xml version="1.0" encoding="utf-8"?>
<!-- Generator: Adobe Illustrator 16.0.0, SVG Export Plug-In . SVG Version: 6.00 Build 0)  -->
<!DOCTYPE svg PUBLIC "-//W3C//DTD SVG 1.1//EN" "http://www.w3.org/Graphics/SVG/1.1/DTD/svg11.dtd">
<svg version="1.1" id="Layer_1" xmlns="http://www.w3.org/2000/svg" xmlns:xlink="http://www.w3.org/1999/xlink" x="0px" y="0px"
	 width="700px" height="700px" viewBox="150 0 700 700" enable-background="new 150 0 700 700" xml:space="preserve">
<path d="M150,0h700v700H150V0z M627.75,127.5H562.5V74H437.25v53.5h-65.5c-9.5,0-17,7.75-17,17V588c0,9.5,7.75,17,17,17h256
	c9.5,0,17-7.75,17-17V144.5C644.75,135.25,637,127.5,627.75,127.5z M617.25,577.5h-235V155h235V577.5z M549.5,193l-104,152l42.75,5
	L449.5,486.75l106-153l-45-5.75L549.5,193z"/>
</svg>
