<?xml version="1.0" encoding="utf-8"?>
<!-- Generator: Adobe Illustrator 16.0.0, SVG Export Plug-In . SVG Version: 6.00 Build 0)  -->
<!DOCTYPE svg PUBLIC "-//W3C//DTD SVG 1.1//EN" "http://www.w3.org/Graphics/SVG/1.1/DTD/svg11.dtd">
<svg version="1.1" id="Layer_1" xmlns="http://www.w3.org/2000/svg" xmlns:xlink="http://www.w3.org/1999/xlink" x="0px" y="0px"
	 width="700px" height="700px" viewBox="150 0 700 700" enable-background="new 150 0 700 700" xml:space="preserve">
<path d="M150,0v700h700V0H150z M344.75,94.75h-92v43h64.75V170h-64.75v57.5H342V260H217.25v-32.5V170v-32.25v-43V62.5h127.5V94.75z
	 M488.5,260l-41-68.25L404,260h-43.75l66.5-102.25L369.5,62.5h40l38.75,62.5L489,62.5h41l-61.25,95.75L532,260H488.5z M603,260
	h-37.25V62.5H603V260z M802.25,94.75h-64.5V260h-37V94.75h-63.5V62.5h63.5h37h64.5V94.75z"/>
</svg>
