<?xml version="1.0" encoding="utf-8"?>
<!-- Generator: Adobe Illustrator 16.0.0, SVG Export Plug-In . SVG Version: 6.00 Build 0)  -->
<!DOCTYPE svg PUBLIC "-//W3C//DTD SVG 1.1//EN" "http://www.w3.org/Graphics/SVG/1.1/DTD/svg11.dtd">
<svg version="1.1" id="Layer_1" xmlns="http://www.w3.org/2000/svg" xmlns:xlink="http://www.w3.org/1999/xlink" x="0px" y="0px"
	 width="700px" height="700px" viewBox="0 0 700 700" enable-background="new 0 0 700 700" xml:space="preserve">
<path d="M0,0v700h700V0H0z M544.25,315.75l-136.75,79c-16.25,9.25-37,3.75-46.5-12.5c-7-11.75-5.75-26,1.5-36.5v-1.25l-33,55.25
	L436.75,507c18.25,18.25,18.25,48,0,66.25c-9.75,9.5-22.5,14-35.25,13.5c-0.75,0-1.25,0-2,0H169.75c-21.25,0-38.25-17-38.25-38.25
	s17.25-38.25,38.25-38.25H308L231.75,434c-13-13.25-16.75-32-11-48.5c1-5.5,3-10.75,6-15.75l107.5-180.5
	c14.5-24.5,46.25-32.5,70.75-18c16.25,9.5,25.25,26.5,25.25,44V302l79.5-46c16.25-9.25,37-3.75,46.5,12.5S560,305.5,544.25,315.75z
	 M503.75,225.5c-34.794,0-63-28.206-63-63s28.206-63,63-63s63,28.206,63,63S538.544,225.5,503.75,225.5z"/>
</svg>
