<?xml version="1.0" encoding="utf-8"?>
<!-- Generator: Adobe Illustrator 16.0.0, SVG Export Plug-In . SVG Version: 6.00 Build 0)  -->
<!DOCTYPE svg PUBLIC "-//W3C//DTD SVG 1.1//EN" "http://www.w3.org/Graphics/SVG/1.1/DTD/svg11.dtd">
<svg version="1.1" id="Layer_1" xmlns="http://www.w3.org/2000/svg" xmlns:xlink="http://www.w3.org/1999/xlink" x="0px" y="0px"
	 width="700px" height="700px" viewBox="0 0 700 700" enable-background="new 0 0 700 700" xml:space="preserve">
<path d="M540.5,286.25C536.75,296,526,301,516.25,297.5l-73.25-27l11-29.75h-33.25l-7,19l-14.25-5.25c-6.5-2.5-10.75-7.75-12-13.75
	H88.25v370H611v-370h-53.75L540.5,286.25z M305.25,391.25c0,37.75-25.75,59.5-25.75,59.5c-22,21.5-69.75,21.75-69.75,21.75H178v96
	h-48.25V303H178h31.75c0,0,47.75,0.25,69.75,21.75c0,0,25.5,21.5,25.75,59.75V391.25z M422.25,568.5h-45.5V523h45.5V568.5z
	 M422.25,500.5h-45.5V455h45.5V500.5z M422.25,432.5h-45.5V387h45.5V432.5z M491.25,568.5h-45.5V523h45.5V568.5z M491.25,500.5
	h-45.5V455h45.5V500.5z M491.25,432.5h-45.5V387h45.5V432.5z M560,568.5h-45.5V523H560V568.5z M560,500.5h-45.5V455H560V500.5z
	 M560,432.5h-45.5V387H560V432.5z M571.25,319.25c0,7.5-6,13.5-13.5,13.5H379c-7.5,0-13.5-6-13.5-13.5s6-13.5,13.5-13.5h178.75
	C565.25,305.75,571.25,311.75,571.25,319.25z M255.25,384.25V391H255c0,0,1.25,37.75-45.5,37.75H178V346.5h31.75
	C256.5,346.5,255.25,384.25,255.25,384.25z M0,0v700h700V0H0z M638.75,623c0,8.5-7,15.5-15.5,15.5h-547c-8.5,0-15.5-7-15.5-15.5V229
	c0-8.5,7-15.5,15.5-15.5h318.5L459,38.5c3.75-9.75,14.5-14.75,24.25-11.25l14,5.25L431,213.25h33.25l62.5-170L600,70
	c9.75,3.75,14.75,14.5,11.25,24.25l-43.75,119h55.75c8.5,0,15.25,7,15.5,15.5V623z"/>
</svg>
