<?xml version="1.0" encoding="utf-8"?>
<!-- Generator: Adobe Illustrator 16.0.0, SVG Export Plug-In . SVG Version: 6.00 Build 0)  -->
<!DOCTYPE svg PUBLIC "-//W3C//DTD SVG 1.1//EN" "http://www.w3.org/Graphics/SVG/1.1/DTD/svg11.dtd">
<svg version="1.1" id="Layer_1" xmlns="http://www.w3.org/2000/svg" xmlns:xlink="http://www.w3.org/1999/xlink" x="0px" y="0px"
	 width="46.254px" height="46.254px" viewBox="0 0 46.254 46.254" enable-background="new 0 0 46.254 46.254" xml:space="preserve">
<path d="M0,46.254h46.254V0H0V46.254z M8.404,36.763c0,1.259-0.728,1.985-1.987,1.985H5.49V19.873h2.914V36.763z M9.531,16.827
	c0,1.258-0.729,1.987-1.988,1.987H6.351c-1.258,0-1.986-0.729-1.986-1.987V8.746c0-0.397,0.198-0.662,0.662-0.662h0.53v6.491h0.794
	V8.746c0-0.397,0.199-0.662,0.663-0.662h0.529v6.491h0.795V8.746c0-0.397,0.199-0.662,0.662-0.662h0.531V16.827z M23.108,35.305
	c-6.823,0-12.121-5.299-12.121-12.12c0-6.822,5.298-12.121,12.121-12.121c6.821,0,12.12,5.299,12.12,12.121
	C35.229,30.006,29.93,35.305,23.108,35.305 M41.057,36.763c0,1.259-0.729,1.985-1.986,1.985h-0.928V24.245h2.914V36.763z
	 M41.057,23.185h-1.655c-1.259,0-1.987-0.729-1.987-1.987V10.071c0-1.259,0.729-1.987,1.987-1.987h1.655V23.185z M23.108,12.521
	c6.027,0,10.663,4.636,10.663,10.663c0,6.027-4.636,10.664-10.663,10.664c-6.028,0-10.664-4.637-10.664-10.664
	C12.444,17.158,17.081,12.521,23.108,12.521"/>
</svg>
