<?xml version="1.0" encoding="utf-8"?>
<!-- Generator: Adobe Illustrator 16.0.0, SVG Export Plug-In . SVG Version: 6.00 Build 0)  -->
<!DOCTYPE svg PUBLIC "-//W3C//DTD SVG 1.1//EN" "http://www.w3.org/Graphics/SVG/1.1/DTD/svg11.dtd">
<svg version="1.1" id="Layer_1" xmlns="http://www.w3.org/2000/svg" xmlns:xlink="http://www.w3.org/1999/xlink" x="0px" y="0px"
	 width="46.254px" height="46.254px" viewBox="0 0 46.254 46.254" enable-background="new 0 0 46.254 46.254" xml:space="preserve">
<path d="M0,46.254h46.254V0H0V46.254z M17.614,8.658c1.384,0,2.438,1.054,2.438,2.57c0,1.45-1.054,2.504-2.438,2.504
	c-1.449,0-2.504-1.054-2.504-2.504C15.11,9.712,16.165,8.658,17.614,8.658 M13.792,17.949c0-2.108,1.582-3.295,3.822-3.295
	c2.241,0,3.823,1.187,3.823,3.295v1.78l-7.645,7.645V17.949z M14.649,36.731H4.302v-2.372c0-2.505,1.977-5.206,5.207-5.206h4.217
	l14.63-14.63c0.988-0.989,2.438-1.516,3.822-1.516h4.35c3.229,0,5.206,2.702,5.206,5.206v2.373h-8.633l-14.63,14.627
	C17.483,36.204,16.033,36.731,14.649,36.731 M41.799,34.688c0,0.33-0.065,0.594-0.264,0.791c-0.33,0.329-0.726,0.329-1.582,0.264
	v-6.129l0.065-0.923L31.65,37.06l-0.526-0.526c-0.461-0.461-0.461-0.99,0-1.449l7.645-7.646l-0.855,0.065h-6.129
	c-0.066-0.791-0.133-1.187,0.197-1.582c0.264-0.197,0.461-0.264,0.791-0.264h6.393c1.383,0,1.778,0.198,2.108,0.527
	c0.329,0.329,0.526,0.791,0.526,2.107V34.688z"/>
</svg>
