<?xml version="1.0" encoding="utf-8"?>
<!-- Generator: Adobe Illustrator 16.0.0, SVG Export Plug-In . SVG Version: 6.00 Build 0)  -->
<!DOCTYPE svg PUBLIC "-//W3C//DTD SVG 1.1//EN" "http://www.w3.org/Graphics/SVG/1.1/DTD/svg11.dtd">
<svg version="1.1" id="Layer_1" xmlns="http://www.w3.org/2000/svg" xmlns:xlink="http://www.w3.org/1999/xlink" x="0px" y="0px"
	 width="700px" height="700px" viewBox="150 0 700 700" enable-background="new 150 0 700 700" xml:space="preserve">
<path d="M274.25,270.5c5,7,7.5,16,7.5,27.75c0,11.25-2.5,20-7.75,26.75s-12.5,10-21.75,10c-9,0-16.25-3.25-21.5-10.25
	S223,309,223,298c0-11.25,2.5-20.25,7.75-27.25s12.75-10.5,22-10.5S269.25,263.75,274.25,270.5z M322.75,99c-4,0-7.5,1.75-10.5,5
	s-5,7.5-5.75,13h30.75C337.25,105,332.5,99,322.75,99z M850,0v700H150V0H850z M606,59.25c0,3.5,1.25,6.25,3.75,9
	c2.5,2.25,5.75,3.5,9.75,3.5s7.25-1.25,9.75-3.5S633,63,633,59.5s-1.25-6.5-3.75-8.75s-5.75-3.5-9.75-3.5s-7.25,1-9.75,3.25
	S606,55.75,606,59.25z M607.75,85v80H631V85H607.75z M544.25,165h23.25v-38.5c0-7.25,1.75-12.75,4.75-16.75s7.25-6,12.5-6
	c4,0,7.5,0.75,10.25,2.5V84.5c-1.5-0.75-3.5-1-6.25-1c-10.25,0-17.25,5.5-21,16.5h-0.25V85h-23.25V165z M370.25,127.25
	c0,11.75,3.75,21.25,11.25,28.75c7.5,7.25,17.25,11,29.5,11c10.25,0,18.25-1.75,23.75-5H435v-18.75c-6,4-12,6-18.25,6
	c-7,0-12.75-2-16.75-6.25c-4.25-4.25-6.25-10-6.25-17.25c0-7.5,2-13.5,6.5-17.75s10-6.5,17.25-6.5c6.25,0,12.25,1.75,17.5,5.75v-20
	c-4.5-2.5-11.25-3.75-20.25-3.75c-13.5,0-24.25,4-32.25,11.75C374.25,103,370.25,113.75,370.25,127.25z M283.5,126
	c0,12.75,3.5,22.75,10.5,30c7.25,7.25,17,10.75,29.75,10.75c11.75,0,21.25-2.25,28.5-6.25v-17c-6.75,4.25-14.5,6.5-23.25,6.5
	c-14.25,0-21.75-6-22.5-18.5H359v-10c0-12-3-21.5-9.5-28.25C343.25,86.5,334.25,83,323,83s-20.75,4-28.25,12S283.5,113.25,283.5,126
	z M198.25,84.25c0,14,8.75,24.75,26.25,32.25c11,4.75,17.75,8.5,20.5,11s4,5.5,4,8.5c0,3.75-1.75,6.5-5,8.75s-8.25,3.25-14.75,3.25
	c-11.395,0-21.56-3.687-30.5-11.05v-0.2h-0.25c0.083,0.069,0.167,0.132,0.25,0.2v23.8C207,165,217.5,167,230.25,167
	c14,0,25-2.75,32.5-8.5c7.75-5.5,11.5-13.75,11.5-24.5c0-7.5-2-13.75-6.25-19s-12-10.25-23-15c-9.5-4-15.25-7.25-17.75-9.75
	c-2.25-2.5-3.5-5-3.5-8c0-3.75,1.75-6.5,5.25-8.75s8-3.25,14-3.25c10,0,18.75,2.75,26.25,7.75V55.5c-7.5-2.75-16.5-4.25-27.5-4.25
	c-13,0-23.5,3-31.5,8.75S198.25,73.75,198.25,84.25z M307.25,297c0-16.75-5-30.25-14.75-41S270,240,254,240
	c-17,0-30.5,5.5-40.75,16.5S198,281.75,198,299.25c0,16.5,5,30,15.25,40.75c10,10.5,23,15.75,39,15.75
	c16.25,0,29.5-5.25,39.75-16.25S307.25,314.5,307.25,297z M378.25,235c-3.25-1-7.25-1.5-12.25-1.5c-9.5,0-17.25,2.75-23.25,8.25
	s-9,12.75-9,21.75v10.25H320.5v17.5h13.25v62.5H357v-62.5h18.25v-17.5H357v-9c0-8.75,4-13.25,12-13.25c2.75,0,5.75,0.75,9,2h0.25
	V235z M438.25,235c-3.25-1-7.25-1.5-12.25-1.5c-9.5,0-17.25,2.75-23.25,8.25s-9,12.75-9,21.75v10.25H380.5v17.5h13.25v62.5H417
	v-62.5h18.25v-17.5H417v-9c0-8.75,4-13.25,12-13.25c2.75,0,5.75,0.75,9,2h0.25V235z M470,273.75h-23.25v80H470V273.75z M472,248.25
	c0-3.5-1.25-6.5-3.75-8.75s-5.75-3.5-9.75-3.5s-7.25,1-9.75,3.25S445,244.5,445,248s1.25,6.25,3.75,9c2.5,2.25,5.75,3.5,9.75,3.5
	s7.25-1.25,9.75-3.5S472,251.75,472,248.25z M479,167c10.25,0,18.5-4.75,24.5-14.25h0.25V165H527V85h-23.25v45.75
	c0,5.5-1.5,10-4.25,13.25s-6.5,5-11.25,5c-9.25,0-14-6-14-18V85H451v48.25C451,155.75,460.5,167,479,167z M553.5,276
	c-4.5-2.5-11.25-3.75-20.25-3.75c-13.25,0-24.25,4-32.25,11.75c-8.25,7.75-12.25,18.5-12.25,32c0,11.75,3.75,21.25,11.25,28.75
	c7.5,7.25,17.25,11,29.5,11c10.25,0,18.25-1.75,23.75-5h0.25V332c-6,4-12,6-18.25,6c-7,0-12.75-2-16.75-6.25
	c-4.25-4.25-6.25-10-6.25-17.25c0-7.5,2.25-13.5,6.5-17.75c4.5-4.25,10.25-6.5,17.25-6.5c6.25,0,12.25,1.75,17.5,5.75V276z
	 M640.75,310.25c0-12-3-21.5-9.5-28.25c-6.25-6.75-15.25-10.25-26.5-10.25s-20.75,4-28.25,12s-11.25,18.25-11.25,31
	s3.5,22.75,10.5,30c7.25,7.25,17,10.75,29.75,10.75c11.75,0,21.25-2.25,28.5-6.25v-17c-6.75,4.25-14.5,6.5-23.25,6.5
	c-14.25,0-21.75-6-22.5-18.5h52.5V310.25z M699.75,85H681.5V60.75l-23.25,6.75V85H645v17.5h13.25v37.75
	c0,17.75,8.5,26.75,25.5,26.75c7.25,0,12.5-1,16-3h-0.25v-17.25c-2.75,1.5-5.5,2.25-8,2.25c-6.75,0-10-4.25-10-12.75V102.5h18.25V85
	z M794.5,85h-23l-16,50.25c-1.25,4-2.25,7.5-2.5,10h-0.5c-0.25-3.75-1-7.25-2-10.25L735,85h-26l32.5,79.75l-4.5,10.5
	c-2.75,6.25-7.25,9.25-13.5,9.25c-3.75,0-7-1-10.25-2.75v18.75c3.25,1.25,8,2,14,2c15.25,0,26.75-10.25,34.25-30.5L794.5,85z
	 M604.5,287.75c-4,0-7.5,1.75-10.5,5s-5,7.5-5.75,13H619C619,293.75,614.25,287.75,604.5,287.75z M198.5,136.75
	c0.083,0.069,0.167,0.132,0.25,0.2v-0.2H198.5z"/>
</svg>
