<?xml version="1.0" encoding="utf-8"?>
<!-- Generator: Adobe Illustrator 16.0.0, SVG Export Plug-In . SVG Version: 6.00 Build 0)  -->
<!DOCTYPE svg PUBLIC "-//W3C//DTD SVG 1.1//EN" "http://www.w3.org/Graphics/SVG/1.1/DTD/svg11.dtd">
<svg version="1.1" id="Layer_1" xmlns="http://www.w3.org/2000/svg" xmlns:xlink="http://www.w3.org/1999/xlink" x="0px" y="0px"
	 width="46.254px" height="46.254px" viewBox="0 0 46.254 46.254" enable-background="new 0 0 46.254 46.254" xml:space="preserve">
<path d="M40.581,9.9c0.713,0,1.162,0.489,1.137,1.309h-2.42C39.39,10.417,39.879,9.9,40.581,9.9 M6.313,21.167
	c0-0.673-0.426-1.209-1.416-1.209H4.128v2.418h0.784C5.833,22.376,6.313,21.869,6.313,21.167 M5.365,23.737H4.128v2.557h1.058
	c1.1,0,1.691-0.398,1.691-1.319C6.877,24.204,6.286,23.737,5.365,23.737 M0,0h46.254v46.254H0V0z M5.868,6.304
	c-2.142,0-3.399,1.098-3.399,2.684c0,2.936,3.743,2.156,3.743,3.861c0,0.82-0.675,1.178-1.548,1.178
	c-0.647,0-1.361-0.146-1.864-0.318l-0.105,1.6c0.555,0.145,1.19,0.212,1.824,0.212c2.196,0,3.531-1.23,3.531-2.91
	c0-2.79-3.755-2.195-3.755-3.795c0-0.635,0.502-1.084,1.494-1.084c0.542,0,1.097,0.092,1.6,0.238l0.092-1.508
	C6.952,6.37,6.37,6.304,5.868,6.304 M5.379,27.653c2.103,0,3.175-1.277,3.175-2.68c0-1.059-0.646-1.924-1.704-2.185v-0.027
	c0.714-0.358,1.099-1.086,1.099-1.869c0-1.182-0.879-2.295-2.817-2.295H2.48v9.056H5.379 M9.502,15.375h1.693v-3.174
	c0-1.15,0.674-2.129,1.534-2.129c0.621,0,0.806,0.411,0.806,1.098v4.205h1.68V10.76c0-1.15-0.476-2.103-1.957-2.103
	c-1.019,0-1.772,0.49-2.156,1.23l-0.027-0.013c0.093-0.383,0.12-0.939,0.12-1.336V5.722H9.502V15.375z M15.768,27.653
	c-0.096-0.343-0.11-0.906-0.11-1.607v-4.892H14.01v4.659c-0.29,0.316-0.798,0.577-1.334,0.577c-0.495,0-0.811-0.206-0.976-0.591
	c-0.096-0.207-0.137-0.469-0.137-0.813v-3.833H9.927v3.999c0,0.605,0.069,1.004,0.221,1.361c0.398,1.018,1.319,1.277,1.951,1.277
	c0.852,0,1.525-0.371,2.02-0.812l0.247,0.673H15.768z M19.203,27.792c1.402,0,2.639-0.592,2.639-2.021
	c0-2.268-3.051-1.869-3.051-2.9c0-0.426,0.371-0.591,0.921-0.591c0.687,0,1.292,0.179,1.841,0.413v-1.388
	c-0.536-0.193-1.182-0.316-1.91-0.316c-1.526,0-2.46,0.811-2.46,1.965c0,2.171,3.051,1.759,3.051,2.858
	c0,0.494-0.481,0.687-1.141,0.687c-0.659,0-1.278-0.22-1.772-0.535l-0.509,1.195C17.348,27.489,18.187,27.792,19.203,27.792
	 M22.762,8.803H21.07v3.174c0,1.15-0.662,2.129-1.521,2.129c-0.635,0-0.82-0.411-0.82-1.098V8.803H17.05v4.615
	c0,1.15,0.476,2.103,1.957,2.103c1.084,0,1.838-0.543,2.234-1.323l0.014,0.014c-0.066,0.343-0.079,0.859-0.079,1.163h1.586V8.803z
	 M28.167,8.803h-1.602V6.33l-1.691,0.449v2.024h-1.125v1.309h1.138v3.332c0,1.534,0.45,2.063,1.903,2.063
	c0.463,0,0.953-0.066,1.377-0.171v-1.363c-0.238,0.066-0.543,0.106-0.82,0.106c-0.582,0-0.78-0.238-0.78-1.084v-2.883h1.601V8.803
	L28.167,8.803z M33.125,8.803h-1.601V6.33l-1.692,0.449v2.024h-1.123v1.309h1.137v3.332c0,1.534,0.449,2.063,1.904,2.063
	c0.463,0,0.951-0.066,1.375-0.171v-1.363c-0.237,0.066-0.543,0.106-0.819,0.106c-0.582,0-0.78-0.238-0.78-1.084v-2.883h1.6V8.803
	L33.125,8.803z M36.193,5.722h-1.69v9.653h1.69V5.722z M43.342,12.36c0.041-0.278,0.055-0.542,0.055-0.767
	c0-1.627-0.848-2.936-2.764-2.936c-1.971,0-3.082,1.481-3.082,3.492c0,2.314,1.164,3.358,3.254,3.358
	c0.818,0,1.652-0.145,2.354-0.423L43,13.775c-0.569,0.264-1.271,0.41-1.918,0.41c-1.217,0-1.824-0.595-1.813-1.825H43.342"/>
</svg>
