<?xml version="1.0" encoding="utf-8"?>
<!-- Generator: Adobe Illustrator 16.0.0, SVG Export Plug-In . SVG Version: 6.00 Build 0)  -->
<!DOCTYPE svg PUBLIC "-//W3C//DTD SVG 1.1//EN" "http://www.w3.org/Graphics/SVG/1.1/DTD/svg11.dtd">
<svg version="1.1" id="Layer_1" xmlns="http://www.w3.org/2000/svg" xmlns:xlink="http://www.w3.org/1999/xlink" x="0px" y="0px"
	 width="46.254px" height="46.254px" viewBox="0 0 46.254 46.254" enable-background="new 0 0 46.254 46.254" xml:space="preserve">
<path d="M0,46.254h46.254V0H0V46.254z M31.584,8.833c-0.133,1.452-1.123,5.809-2.51,10.562c-1.848,6.402-5.412,14.918-9.438,20.464
	c-0.792,1.056-2.244,1.32-3.367,0.528l-1.188-0.858c-1.585-1.122-1.849-2.442-1.188-3.764c0.66-1.056,2.574-4.687,3.036-5.479
	c0.792-1.386,1.98-1.781,3.565-1.188c0.528,0.197,1.056,0,1.32-0.528c1.453-2.772,2.972-7.129,3.829-9.901
	c0.197-0.594-0.064-1.189-0.727-1.453c-1.915-0.792-2.376-1.782-1.98-3.3c0.331-1.254,1.057-5.017,1.254-6.073
	c0.266-1.585,1.452-2.245,3.234-2.113c0.594,0.066,1.65,0.199,2.244,0.331C31.254,6.391,31.715,7.513,31.584,8.833"/>
</svg>
