<?xml version="1.0" encoding="utf-8"?>
<!-- Generator: Adobe Illustrator 16.0.0, SVG Export Plug-In . SVG Version: 6.00 Build 0)  -->
<!DOCTYPE svg PUBLIC "-//W3C//DTD SVG 1.1//EN" "http://www.w3.org/Graphics/SVG/1.1/DTD/svg11.dtd">
<svg version="1.1" id="Layer_1" xmlns="http://www.w3.org/2000/svg" xmlns:xlink="http://www.w3.org/1999/xlink" x="0px" y="0px"
	 width="46.246px" height="46.246px" viewBox="0 0 46.246 46.246" enable-background="new 0 0 46.246 46.246" xml:space="preserve">
<path d="M0,46.246h46.246V0H0V46.246z M33.8,5.82c1.455,0,2.512,1.058,2.512,2.579c0,1.455-1.057,2.512-2.512,2.512
	c-1.389,0-2.447-1.057-2.447-2.512C31.353,6.878,32.412,5.82,33.8,5.82 M12.446,5.82c1.388,0,2.446,1.058,2.446,2.579
	c0,1.455-1.058,2.512-2.446,2.512c-1.455,0-2.513-1.057-2.513-2.512C9.933,6.878,10.991,5.82,12.446,5.82 M21.305,22.083
	l-5.025-4.958v21.951c0,1.123-0.793,1.916-1.917,1.916h-0.992V27.042c-0.264-0.065-0.595-0.065-0.925-0.065
	c-0.397,0-0.727,0-0.926,0.065v12.033c0,1.123-0.793,1.916-1.917,1.916H8.611V17.125l-5.025,4.958
	c-0.727-0.529-1.388-1.124-1.388-1.917c0-0.265,0-0.728,0.794-1.455l4.826-4.693c1.917-1.852,3.173-2.314,4.628-2.314
	c1.454,0,2.776,0.462,4.628,2.314l4.826,4.693c0.793,0.727,0.793,1.19,0.793,1.455C22.693,20.96,22.032,21.555,21.305,22.083
	 M42.66,22.083l-5.289-5.223c0,0,1.867,8.479,2.444,11.371c0,0-1.455,0.397-2.644,0.528v10.314c0,1.123-0.729,1.918-1.854,1.918
	h-0.793V28.96h-1.453v10.115c0,1.123-0.795,1.916-1.918,1.916h-0.727v-12.23c-1.19-0.133-2.645-0.529-2.645-0.529
	c0.666-3.025,2.444-11.371,2.444-11.371l-5.289,5.223c-0.728-0.529-1.388-1.124-1.388-1.917c0-0.265,0-0.728,0.793-1.455
	l4.826-4.693c1.918-1.852,3.174-2.314,4.627-2.314c1.455,0,2.777,0.462,4.629,2.314l4.826,4.693c0.793,0.727,0.793,1.19,0.793,1.455
	C44.048,20.96,43.387,21.555,42.66,22.083"/>
</svg>
