<?xml version="1.0" encoding="utf-8"?>
<!-- Generator: Adobe Illustrator 16.0.0, SVG Export Plug-In . SVG Version: 6.00 Build 0)  -->
<!DOCTYPE svg PUBLIC "-//W3C//DTD SVG 1.1//EN" "http://www.w3.org/Graphics/SVG/1.1/DTD/svg11.dtd">
<svg version="1.1" xmlns="http://www.w3.org/2000/svg" xmlns:xlink="http://www.w3.org/1999/xlink" x="0px" y="0px" width="53.86px"
	 height="53.86px" viewBox="0.742 -0.002 53.86 53.86" enable-background="new 0.742 -0.002 53.86 53.86" xml:space="preserve">
<g id="레이어_2">
	<rect x="0.742" y="0" width="53.86" height="53.858"/>
</g>
<g id="레이어_3">
	<rect x="5.494" y="0" fill="#FFFFFF" width="45.522" height="53.857"/>
</g>
<g id="Layer_1">
	<path d="M3.577,0h48.189v53.857H3.577V0L3.577,0z M39.133,19.442l-8.744-3.585c-0.994-0.398-1.789-0.664-2.716-0.664
		c-0.929,0-1.724,0.266-2.717,0.664l-8.746,3.585c-1.19,0.465-1.522,1.129-1.522,1.792c0,0.465,0.133,0.93,0.596,1.858l8.083-3.187
		v27.95h1.126c1.26,0,2.121-0.863,2.121-2.123V32.322c0.264-0.066,0.662-0.133,1.061-0.133c0.397,0,0.794,0.065,1.06,0.133v15.535
		h1.127c1.258,0,2.119-0.863,2.119-2.123V19.907l8.082,3.187c0.465-0.93,0.598-1.395,0.598-1.858
		C40.657,20.571,40.325,19.907,39.133,19.442L39.133,19.442z M30.454,11.542c0-1.659-1.192-2.854-2.781-2.854
		c-1.592,0-2.782,1.194-2.782,2.854c0,1.66,1.19,2.854,2.782,2.854C29.261,14.396,30.454,13.202,30.454,11.542L30.454,11.542z"/>
</g>
</svg>
